<?xml version="1.0" standalone="no"?>
<!DOCTYPE svg PUBLIC "-//W3C//DTD SVG 20010904//EN"
 "http://www.w3.org/TR/2001/REC-SVG-20010904/DTD/svg10.dtd">
<svg version="1.0" xmlns="http://www.w3.org/2000/svg"
 width="444.000000pt" height="600.000000pt" viewBox="0 0 444.000000 600.000000"
 preserveAspectRatio="xMidYMid meet">

<g transform="translate(0.000000,600.000000) scale(0.100000,-0.100000)"
fill="#000000" stroke="none">
<path d="M1601 5989 c-120 -20 -201 -56 -201 -88 0 -16 42 -40 80 -48 25 -4
53 -24 98 -69 59 -59 63 -66 62 -106 -1 -24 5 -61 14 -83 42 -111 -13 -454
-126 -785 -96 -280 -99 -294 -98 -462 0 -140 -3 -160 -25 -139 -20 19 -120 41
-240 52 -99 10 -162 10 -298 0 -206 -15 -253 -25 -275 -59 -15 -23 -15 -32 2
-129 14 -84 65 -287 92 -363 4 -12 -4 -14 -44 -12 -55 4 -124 -24 -142 -58 -6
-11 -26 -22 -48 -26 -20 -3 -50 -10 -67 -15 -24 -7 -21 -7 15 -3 25 3 53 8 63
11 16 4 18 0 16 -35 -2 -24 3 -49 14 -65 9 -15 17 -29 17 -32 0 -15 -216 33
-230 51 -17 19 2 41 43 50 18 4 27 9 20 11 -18 6 -103 -34 -103 -49 0 -34 155
-107 315 -148 64 -16 134 -39 156 -50 22 -12 46 -19 52 -16 7 2 4 5 -5 5 -10
1 -18 6 -18 12 0 6 7 8 16 5 9 -3 18 -6 20 -6 2 0 4 -6 4 -13 0 -15 33 -34 71
-40 17 -2 26 1 26 10 0 7 -11 13 -24 13 -14 0 -23 6 -23 16 0 25 41 6 75 -35
79 -97 143 -133 200 -111 45 17 58 14 44 -12 -7 -13 -19 -27 -27 -32 -12 -7
-12 -10 -1 -17 22 -14 51 -11 71 8 17 15 18 15 18 0 0 -10 -10 -27 -21 -38
-20 -20 -29 -21 -127 -16 l-106 5 -37 41 c-21 23 -43 41 -48 41 -16 0 -25 -22
-12 -29 6 -4 20 -23 30 -41 39 -73 170 -101 286 -62 33 11 61 20 61 19 1 -1
-3 -26 -8 -55 -8 -38 -8 -60 1 -78 6 -14 11 -60 11 -102 1 -100 11 -142 44
-175 14 -14 26 -31 26 -37 0 -6 5 -8 11 -4 7 4 9 34 7 80 -2 43 1 75 7 76 6 2
25 -28 44 -67 18 -38 37 -77 41 -85 10 -20 24 -15 28 10 4 24 15 26 33 4 18
-22 68 -46 79 -39 18 11 10 34 -20 55 -17 12 -30 28 -30 35 0 15 -38 40 -47
32 -2 -3 5 -8 16 -12 12 -3 21 -10 21 -15 0 -19 -55 21 -70 51 -8 18 -26 39
-40 47 l-25 14 22 -18 c12 -11 25 -32 29 -47 4 -18 23 -40 48 -58 22 -15 51
-36 64 -45 13 -9 21 -19 18 -22 -4 -3 -27 9 -51 26 -58 40 -69 41 -61 2 3 -19
2 -29 -4 -25 -6 3 -10 13 -10 21 0 8 -9 32 -20 54 -23 46 -25 54 -7 44 6 -5
-3 9 -20 29 -25 29 -33 47 -32 75 0 30 2 33 9 17 9 -20 9 -20 9 1 1 11 -4 25
-11 32 -7 7 -13 25 -14 40 0 15 -2 52 -4 82 l-3 55 -8 -73 c-5 -45 -5 -81 1
-92 6 -10 6 -35 1 -61 l-9 -44 -2 50 -2 50 -11 -33 c-8 -25 -6 -49 6 -101 10
-38 17 -84 16 -102 l0 -34 -19 45 c-12 28 -19 37 -20 25 -1 -20 -1 -20 -12 0
-6 10 -13 64 -16 118 -4 84 -3 99 9 92 11 -7 11 -6 0 9 -12 14 -12 19 -2 25 9
6 6 10 -9 14 -18 5 -21 10 -16 29 4 13 10 40 13 60 6 42 33 75 33 41 0 -10 4
-23 9 -29 5 -5 11 -16 14 -24 6 -20 -1 28 -9 60 -5 20 -4 22 6 10 9 -12 10 -8
5 17 -8 38 7 50 34 26 10 -10 31 -26 45 -36 26 -18 46 -70 46 -124 0 -17 4
-33 9 -35 5 -1 12 -28 15 -58 5 -39 4 -51 -3 -40 -6 8 -11 29 -12 45 -1 20 -3
24 -6 11 -5 -20 14 -94 29 -111 6 -6 7 -4 3 6 -4 10 -1 20 5 24 18 11 50 -27
55 -64 2 -19 13 -43 25 -55 11 -11 31 -33 45 -47 14 -15 25 -33 25 -41 0 -18
28 -44 37 -35 3 4 1 21 -5 39 -11 32 -12 32 -6 3 4 -26 0 -23 -30 24 -19 29
-44 62 -55 73 -12 10 -21 28 -21 39 0 17 5 14 30 -14 17 -19 30 -39 30 -44 0
-6 9 -18 19 -27 19 -17 19 -16 15 16 -2 18 -7 48 -10 66 -8 41 1 41 67 -4 l54
-36 -35 37 c-19 20 -50 44 -69 52 -34 17 -91 85 -91 110 0 24 16 14 33 -22 9
-20 25 -38 34 -42 10 -3 30 -15 44 -27 14 -12 6 -3 -18 20 -24 22 -43 44 -43
48 0 10 44 -23 93 -68 21 -20 50 -38 65 -42 15 -3 37 -10 50 -15 13 -5 35 -8
50 -8 27 1 9 7 -80 25 -30 7 -73 43 -62 53 4 3 9 0 11 -6 3 -7 15 -13 27 -13
12 0 32 -7 44 -16 13 -9 26 -13 29 -10 8 8 -45 76 -59 76 -7 0 -3 -6 8 -14 10
-8 16 -17 13 -20 -6 -6 -54 19 -101 53 l-33 24 29 -31 c16 -18 26 -35 22 -39
-4 -5 -18 4 -31 20 -13 15 -28 27 -32 27 -5 0 -19 7 -32 16 -18 13 -20 18 -10
25 24 15 50 10 81 -16 16 -14 37 -25 46 -24 13 0 13 2 -3 9 -20 7 -53 40 -42
40 3 0 17 -4 31 -10 14 -5 26 -6 26 -1 0 5 -7 12 -16 15 -13 5 -14 9 -4 21 11
13 7 15 -21 16 -45 1 -70 5 -94 14 -28 11 -15 -1 20 -19 28 -15 28 -16 7 -16
-48 0 -110 50 -79 64 7 3 1 3 -12 0 -16 -4 -21 -3 -17 5 5 7 -6 17 -27 26 -18
7 -39 21 -46 29 -7 9 -17 14 -21 11 -5 -3 -11 -1 -14 3 -3 5 25 9 62 10 48 1
75 -4 97 -17 28 -17 43 -22 115 -36 56 -11 68 -15 140 -40 108 -37 600 -167
685 -180 40 -6 40 -6 14 9 -45 26 -163 62 -499 151 -290 77 -540 151 -540 160
0 6 88 -7 178 -27 78 -17 100 -19 132 -9 65 19 89 75 52 121 -13 17 -24 21
-40 16 -28 -9 -29 -26 -2 -19 15 4 20 0 20 -15 0 -57 -99 -53 -218 8 -46 23
-87 38 -96 34 -9 -3 -16 -3 -16 0 0 14 49 103 64 115 19 16 20 12 6 -23 -19
-52 1 -24 34 47 22 45 59 100 98 142 35 38 52 61 38 52 -65 -43 -232 -255
-246 -314 -4 -13 -12 -23 -19 -23 -9 0 -8 13 5 54 10 29 23 89 30 132 18 127
16 122 68 147 42 20 47 26 52 62 4 34 12 45 54 73 26 17 69 39 95 46 54 17 34
21 -24 5 -22 -6 -61 -29 -87 -51 -27 -21 -48 -35 -48 -29 0 14 -31 18 -62 8
-34 -11 -37 -34 -5 -40 21 -3 21 -4 2 -11 -39 -15 -50 -23 -82 -65 l-33 -42
-10 26 c-15 41 -13 75 6 75 13 0 15 -7 10 -30 -8 -40 10 -30 19 11 8 35 -8 59
-39 59 -21 1 -21 1 -1 16 36 29 119 64 151 64 46 0 49 23 12 77 -77 112 -134
300 -145 474 -9 158 7 239 102 524 109 324 155 555 143 710 -5 57 -4 62 13 58
9 -3 20 -12 23 -20 7 -17 -27 -361 -50 -511 -8 -57 -14 -106 -11 -108 9 -10
87 539 87 618 0 15 11 16 108 13 l107 -4 -131 13 c-175 18 -184 20 -184 52 0
26 0 26 63 19 l62 -6 -45 22 c-25 13 -75 53 -111 90 -36 37 -85 77 -110 90
-38 20 -41 24 -21 27 13 2 55 -6 94 -18 38 -12 72 -19 75 -16 3 2 -33 16 -78
31 -77 24 -100 26 -143 9 -9 -3 -16 -2 -16 4 0 13 54 32 90 32 36 0 143 -30
280 -80 227 -82 472 -122 750 -124 162 -1 190 1 223 18 20 10 37 25 37 32 0
19 29 18 37 -2 9 -24 -19 -45 -79 -59 -29 -7 -45 -14 -35 -14 9 -1 17 -8 17
-16 0 -11 -13 -15 -47 -17 -48 -1 -48 -1 -8 -5 22 -3 45 -9 51 -14 7 -6 15 -1
22 15 14 32 181 113 274 132 79 17 144 13 230 -13 144 -42 247 -242 264 -510
14 -239 -52 -415 -246 -648 -158 -190 -182 -234 -160 -301 13 -40 35 -54 82
-54 46 0 78 24 77 58 -2 24 -2 24 -6 5 -9 -46 -70 -67 -109 -39 -15 12 -17 18
-8 33 6 10 22 21 35 24 17 5 19 7 6 8 -10 1 -27 -4 -38 -9 -16 -9 -19 -7 -19
14 0 40 21 78 39 70 9 -4 44 -9 79 -12 51 -3 68 -10 92 -32 69 -64 17 -175
-105 -226 -81 -33 -174 8 -196 88 -14 55 3 148 41 213 16 28 39 68 51 90 12
22 45 74 74 115 89 127 159 281 201 439 28 110 31 143 9 135 -11 -5 -15 1 -15
23 0 36 -28 120 -64 191 -18 36 -45 67 -86 99 -33 25 -58 48 -56 51 12 11 80
-12 128 -43 l53 -35 -40 36 c-58 53 -98 67 -186 66 -69 0 -84 -4 -159 -42
-113 -57 -193 -133 -221 -212 -12 -32 -24 -58 -28 -58 -13 0 -35 47 -42 90 -6
45 -6 45 -8 8 -2 -53 -17 -47 -31 12 -18 76 -4 101 75 135 54 23 185 109 185
121 0 2 -31 -16 -69 -41 -76 -52 -167 -86 -157 -60 4 12 -3 15 -32 14 -20 -1
-29 -3 -20 -6 17 -4 17 -7 2 -36 -23 -44 -13 -125 26 -203 26 -54 44 -73 98
-109 5 -4 272 -746 272 -756 0 -6 -11 -48 -25 -93 -22 -71 -31 -87 -69 -119
-25 -20 -56 -60 -70 -89 -28 -56 -47 -178 -28 -178 5 0 8 8 5 19 -8 30 25 140
55 182 29 42 52 50 52 20 0 -10 9 -29 21 -42 19 -23 20 -23 10 -2 -13 27 -14
83 -1 103 15 23 23 4 12 -29 -8 -24 -7 -36 9 -65 10 -20 19 -44 19 -53 0 -28
-42 -173 -49 -169 -3 2 -24 -4 -46 -14 -42 -20 -61 -17 -68 8 -4 15 -5 15 -6
0 0 -10 8 -22 20 -29 16 -8 20 -17 16 -37 l-5 -27 17 25 c22 34 49 60 61 60
31 0 22 -75 -10 -85 -18 -6 -19 -8 -5 -22 14 -14 14 -17 0 -37 -8 -11 -25 -34
-36 -51 l-21 -30 6 27 c3 14 8 34 11 45 3 10 -6 -4 -20 -32 -13 -27 -25 -64
-25 -82 0 -17 -4 -34 -8 -37 -11 -7 3 82 19 121 12 29 11 34 -8 55 -13 14 -23
39 -25 63 -3 35 -6 40 -28 42 -14 1 -18 0 -7 -3 13 -4 17 -16 17 -54 0 -39 4
-52 20 -60 25 -14 26 -41 0 -63 -11 -9 -17 -23 -14 -30 7 -19 -34 -110 -46
-102 -5 3 -10 1 -10 -4 0 -6 -9 -11 -21 -11 -21 0 -21 0 2 19 17 14 26 16 31
8 5 -7 8 -2 8 11 0 13 -9 35 -20 49 -14 17 -20 21 -20 10 0 -8 8 -18 17 -21
14 -6 5 -14 -36 -37 -30 -16 -56 -31 -58 -33 -2 -2 42 -9 99 -16 135 -15 203
-33 292 -74 153 -70 202 -148 214 -336 5 -80 8 -94 12 -60 l5 45 38 -52 c21
-28 45 -72 53 -97 14 -41 14 -48 -1 -80 -18 -37 -77 -96 -117 -116 -13 -7 1
13 33 46 86 90 94 112 58 179 -25 48 -48 73 -25 28 9 -18 16 -54 15 -80 l-1
-48 -10 45 -10 44 -17 -47 c-33 -95 -110 -160 -236 -200 -57 -18 -92 -21 -195
-20 -69 0 -165 8 -215 17 -121 21 -151 19 -45 -4 123 -27 311 -43 415 -37 143
10 261 59 329 138 40 48 50 81 37 127 -11 37 -7 39 34 12 37 -25 51 -25 96 -1
35 19 36 19 48 -1 10 -16 9 -28 -5 -63 -16 -43 -16 -45 10 -100 14 -32 26 -68
26 -81 0 -35 34 -31 61 7 20 29 25 30 66 24 42 -6 46 -4 78 31 23 25 46 39 71
43 37 6 38 7 40 55 2 28 -3 60 -11 77 -25 47 -19 72 22 94 21 11 43 30 49 42
32 66 86 83 92 31 4 -33 9 -34 42 -8 33 26 47 25 54 -5 9 -33 49 -34 78 0 15
18 28 23 44 19 19 -5 32 3 61 36 21 23 41 54 44 68 4 15 10 35 14 45 6 13 -1
20 -28 32 -20 8 -38 19 -42 25 -3 5 -17 10 -31 10 -22 0 -24 4 -24 48 0 184 0
179 -25 196 -29 19 -56 21 -72 5 -19 -19 -41 -4 -36 24 4 19 -1 29 -21 42 -22
15 -25 22 -20 50 5 28 2 36 -20 50 -16 11 -35 15 -50 11 -39 -10 -39 10 -1 40
44 34 46 70 3 67 l-27 -2 4 74 c4 60 3 74 -11 79 -9 3 -19 4 -24 1 -4 -3 -11
2 -14 11 -4 12 -14 14 -36 9 -26 -6 -30 -4 -30 14 0 24 -10 27 -28 9 -9 -9
-12 -8 -12 5 0 30 -28 30 -60 1 -36 -34 -38 -67 -7 -89 22 -16 22 -16 3 -30
-23 -17 -42 -19 -51 -5 -11 18 -42 11 -53 -13 l-11 -22 0 22 c-1 21 -33 48
-44 37 -3 -3 -11 5 -17 18 -7 12 -21 33 -32 44 -13 14 -16 24 -9 29 16 9 13
32 -4 39 -8 3 -27 0 -41 -6 -22 -10 -27 -9 -35 5 -6 9 -16 17 -23 17 -8 0 -16
7 -20 15 -10 26 -44 16 -71 -19 -22 -30 -30 -34 -50 -26 -29 11 -65 -13 -65
-44 0 -13 -9 -31 -20 -41 -11 -10 -20 -26 -20 -36 0 -14 -14 -23 -56 -35 -46
-13 -57 -21 -66 -45 -12 -34 -30 -37 -50 -7 -17 26 -48 19 -48 -12 0 -25 -17
-27 -23 -2 -4 18 29 116 57 171 17 31 17 31 79 25 75 -8 116 7 177 63 67 60
86 123 55 183 -20 38 -59 58 -129 66 -31 4 -56 9 -56 11 0 23 44 93 108 172
109 134 148 195 181 281 48 122 65 227 57 347 -17 257 -111 458 -250 531 -46
25 -61 27 -161 27 -96 0 -120 -4 -188 -29 l-77 -28 -21 26 c-13 17 -30 26 -48
26 -15 0 -77 9 -137 20 -328 58 -985 170 -996 169 -7 -1 -37 -5 -67 -10z m367
-54 c278 -51 741 -134 780 -140 35 -6 43 -28 15 -40 -10 -4 -70 -10 -133 -12
-248 -11 -671 57 -915 147 -75 27 -152 50 -171 50 -41 0 -46 17 -6 23 99 15
241 6 430 -28z m1222 -356 c63 -29 132 -106 166 -187 27 -63 29 -75 29 -202
-1 -126 -3 -142 -34 -230 -40 -116 -95 -219 -170 -313 -31 -40 -67 -87 -80
-104 -12 -18 -26 -33 -30 -33 -4 0 -27 55 -50 123 -24 67 -88 238 -142 380
-54 142 -99 272 -99 288 0 53 47 135 110 192 114 103 205 129 300 86z m-1928
-1345 c140 -19 184 -47 152 -93 -20 -29 -104 -51 -226 -60 -85 -7 -92 -8 -40
-10 85 -1 199 17 244 40 21 11 40 19 43 19 11 0 4 -45 -25 -166 -49 -205 -59
-234 -81 -234 -10 0 -19 -7 -19 -15 0 -8 -13 -21 -28 -29 -36 -19 -51 -36 -69
-83 l-14 -38 5 40 c3 25 14 47 28 58 65 52 68 57 68 96 0 49 -18 64 -22 19 -2
-26 -10 -37 -36 -50 -76 -37 -111 -97 -121 -202 -5 -64 -8 -71 -28 -74 -34 -5
-110 61 -123 107 -22 78 -5 147 38 158 21 5 22 7 8 15 -26 15 -55 0 -83 -43
-22 -33 -25 -47 -21 -97 3 -46 11 -68 36 -102 17 -24 29 -47 26 -52 -3 -4 1
-8 9 -8 8 0 22 -19 32 -42 9 -24 21 -54 27 -68 11 -26 49 -50 78 -50 9 0 25
-7 36 -15 18 -14 17 -14 -13 -15 -17 0 -44 -5 -59 -11 -40 -15 -98 -2 -131 29
l-28 26 30 7 30 6 -34 4 c-57 7 -49 27 11 32 l53 3 -56 2 c-48 2 -59 6 -73 27
-37 57 -90 67 -102 19 -5 -18 -13 -24 -33 -24 -55 0 -306 71 -336 95 -19 14
-16 15 40 9 33 -3 79 -15 103 -26 77 -36 149 -9 184 68 14 34 18 55 12 89 -6
42 -4 48 30 86 54 59 100 135 126 207 19 53 21 65 10 72 -21 13 -27 5 -35 -47
-3 -27 -17 -71 -30 -99 -25 -57 -103 -144 -127 -144 -17 0 -33 42 -77 195 -25
88 -63 276 -57 282 2 3 13 0 24 -6 12 -6 27 -11 34 -11 7 1 -2 7 -19 15 -35
15 -44 44 -20 63 55 46 411 60 649 26z m2218 -44 c6 -11 17 -20 25 -20 24 0
17 -20 -7 -21 -21 -1 -21 -2 -3 -6 31 -8 37 -18 24 -46 -9 -21 -9 -30 0 -41 8
-10 9 -21 4 -31 -9 -15 -11 -15 -23 0 -12 14 -14 13 -27 -5 -8 -11 -22 -20
-32 -20 -9 0 -23 -6 -30 -12 -10 -11 -11 -6 -6 22 7 41 19 57 48 64 12 2 5 4
-15 2 -39 -2 -48 9 -25 34 10 11 8 11 -7 0 -10 -8 -28 -14 -40 -12 -27 4 -83
-53 -95 -96 -9 -30 2 -46 12 -19 4 7 6 6 6 -4 1 -9 -8 -19 -19 -22 -11 -3 -18
-1 -14 4 3 5 0 9 -6 9 -6 0 -16 -11 -22 -25 -11 -25 -32 -33 -42 -16 -4 5 6
19 21 31 l28 21 -41 -20 c-42 -20 -54 -37 -54 -72 0 -13 -7 -19 -24 -19 -14 0
-28 -5 -31 -10 -9 -15 -46 35 -40 54 17 54 15 53 34 27 23 -30 50 -25 71 14
10 18 27 32 46 35 44 10 74 29 74 48 0 10 9 25 20 35 11 9 20 25 20 36 0 28
26 44 60 38 25 -5 33 -2 47 21 30 47 47 53 63 22z m118 -51 c-11 -18 -10 -23
10 -36 12 -9 22 -23 22 -32 0 -22 19 -41 41 -41 10 0 21 -10 24 -22 4 -13 16
-33 27 -44 13 -15 17 -29 13 -47 -6 -23 -9 -25 -22 -12 -8 8 -17 15 -21 15 -4
0 -15 14 -24 30 -9 17 -24 30 -33 30 -20 0 -19 16 3 30 14 8 12 10 -13 8 -31
-3 -31 -2 -18 44 4 13 -1 16 -19 14 -14 -2 -30 -6 -37 -10 -20 -13 -24 24 -5
46 11 12 14 18 8 15 -7 -4 -17 0 -23 7 -13 15 2 21 57 25 20 1 21 -1 10 -20z
m280 4 c-2 -13 3 -18 20 -17 12 0 22 -5 22 -13 0 -8 13 -13 35 -13 19 0 35 -4
35 -10 0 -5 12 -10 26 -10 24 0 25 -1 18 -47 -7 -51 -18 -65 -42 -55 -12 4
-10 7 6 13 12 5 22 11 22 13 0 3 -6 3 -13 0 -8 -3 -20 2 -27 11 -7 8 -18 15
-25 15 -7 0 -15 6 -18 14 -3 7 -18 15 -34 18 -27 4 -29 2 -25 -25 5 -32 -12
-50 -40 -41 -9 2 -19 0 -23 -5 -3 -7 0 -8 9 -5 17 7 22 -11 6 -21 -5 -3 -10
-15 -10 -26 0 -10 -2 -19 -4 -19 -2 0 -11 -3 -20 -6 -12 -5 -16 0 -16 19 0 14
-4 28 -8 31 -4 2 -7 -12 -5 -32 l3 -37 -10 32 c-6 18 -14 34 -19 37 -10 7 -2
56 10 56 4 0 11 -4 14 -10 10 -15 46 -12 67 7 23 21 23 35 -2 51 -27 16 -25
30 7 64 31 32 45 36 41 11z m-505 -75 c2 -7 -4 -27 -15 -45 -19 -31 -19 -32 3
-52 13 -12 21 -22 18 -24 -2 -2 -17 -11 -34 -22 -30 -18 -30 -18 -12 2 17 20
17 20 -10 17 -28 -3 -28 -2 -24 44 2 25 10 57 18 69 16 25 48 31 56 11z
m-1884 -84 c17 -44 49 -110 70 -145 l39 -64 -92 -6 c-50 -3 -101 -11 -113 -17
-28 -15 -38 -15 -26 1 8 10 48 160 79 296 3 13 7 22 8 20 2 -2 18 -40 35 -85z
m2101 73 c0 -18 -36 -51 -44 -39 -6 10 21 52 35 52 5 0 9 -6 9 -13z m325 -28
c4 -11 18 -24 32 -30 18 -7 24 -15 20 -28 -3 -14 -1 -18 9 -14 8 3 14 1 14 -4
0 -17 -31 -53 -47 -53 -12 0 -12 3 4 18 10 9 13 13 6 8 -9 -6 -17 2 -28 27 -8
20 -19 38 -25 42 -13 8 -13 55 -1 55 5 0 13 -9 16 -21z m-365 -56 c27 7 25 -4
-5 -26 -24 -17 -24 -17 -39 10 l-16 28 2 -32 c1 -17 -4 -38 -11 -47 -7 -9 -11
-25 -8 -36 3 -13 0 -20 -9 -20 -7 0 -29 -14 -49 -31 -43 -38 -46 -29 -5 18 17
18 30 44 29 56 0 18 -2 19 -7 5 -9 -22 -61 -62 -70 -53 -4 4 4 15 17 26 28 23
15 26 -17 3 -12 -8 -22 -12 -22 -9 0 11 44 44 58 45 7 0 17 10 23 23 6 12 25
31 42 43 28 18 34 19 49 6 10 -8 26 -12 38 -9z m356 -39 c12 -40 11 -41 -11
-36 -16 3 -22 9 -19 21 5 13 4 13 -6 -1 -25 -40 -34 -12 -14 50 8 27 38 7 50
-34z m-274 6 c10 0 23 -11 27 -24 5 -13 19 -26 30 -29 15 -4 21 -13 20 -34
l-1 -28 -9 25 c-11 29 -99 77 -92 50 5 -20 -33 -70 -53 -70 -12 0 -11 5 5 26
32 41 25 45 -15 8 -56 -53 -104 -87 -111 -80 -9 9 9 37 28 46 62 29 73 38 81
65 9 34 48 69 63 54 5 -5 17 -9 27 -9z m398 -1 c0 -7 10 -9 24 -7 30 6 42 -16
20 -34 -9 -7 -27 -23 -40 -35 -28 -26 -44 -29 -62 -11 -9 9 -18 9 -37 0 -34
-16 -45 -15 -45 3 0 11 11 15 39 15 22 0 43 5 46 11 4 6 17 14 29 19 17 7 17
9 4 9 -20 1 -21 3 -12 25 7 18 34 22 34 5z m-762 -19 c-14 -22 -24 -19 -15 5
4 8 11 15 17 15 6 0 6 -7 -2 -20z m42 5 c-7 -8 -18 -15 -24 -15 -6 0 -2 7 8
15 25 19 32 19 16 0z m220 -12 c0 -14 -19 -38 -25 -32 -8 8 5 39 16 39 5 0 9
-3 9 -7z m-249 -53 c8 0 20 5 26 11 9 9 13 6 18 -14 10 -38 2 -71 -17 -75 -14
-3 -18 3 -18 27 0 16 -4 32 -8 35 -5 3 -7 -9 -5 -27 4 -29 3 -30 -8 -12 -18
31 -40 45 -68 44 -17 -1 -20 -3 -9 -6 22 -6 32 -38 19 -60 -10 -17 -10 -17
-11 1 0 11 -7 27 -16 37 -20 22 -12 49 15 49 11 0 23 5 26 11 5 7 13 5 24 -5
10 -9 24 -16 32 -16z m567 7 c2 -12 -1 -15 -12 -11 -19 7 -22 38 -3 32 6 -3
13 -12 15 -21z m-825 -1 c17 -13 17 -16 -8 -52 -14 -20 -35 -44 -48 -53 l-22
-16 23 30 c14 18 23 41 22 60 -3 51 1 55 33 31z m718 -13 c-8 -15 -10 -15 -11
-2 0 17 10 32 18 25 2 -3 -1 -13 -7 -23z m68 3 c26 -27 23 -52 -9 -81 -22 -20
-26 -45 -9 -62 9 -9 9 -20 -1 -43 -7 -18 -13 -49 -12 -70 1 -22 -4 -43 -11
-47 -7 -4 -21 -21 -31 -36 -9 -16 -20 -26 -23 -24 -2 3 6 19 18 36 18 24 20
34 11 43 -17 17 -15 63 3 78 8 7 15 18 15 24 0 6 -4 5 -9 -3 -5 -8 -14 -10
-21 -6 -9 5 -11 4 -6 -4 6 -8 0 -10 -18 -5 -16 4 -33 1 -43 -7 -15 -12 -16
-12 -10 5 7 16 5 17 -9 5 -11 -9 -12 -15 -5 -17 14 -5 -5 -32 -21 -32 -6 0 -5
7 2 15 10 12 9 16 -3 21 -25 9 40 76 66 68 13 -4 17 -2 13 5 -4 6 -14 11 -22
11 -8 0 -14 4 -14 10 0 13 46 24 66 16 14 -5 15 -4 5 8 -17 20 24 77 48 68 14
-5 14 -3 -2 15 -15 18 -14 33 3 33 4 0 17 -11 29 -24z m-124 -6 c0 -10 -12
-16 -32 -18 -35 -3 -41 6 -21 26 17 17 53 11 53 -8z m285 -21 c0 -6 12 -10 28
-9 52 4 73 0 66 -11 -4 -7 -21 -9 -46 -5 -51 8 -68 -5 -68 -56 0 -51 -20 -58
-58 -19 -16 17 -38 31 -48 32 -10 1 4 9 33 18 29 9 56 21 60 25 5 5 2 6 -7 1
-10 -5 -8 -1 4 13 21 24 36 28 36 11z m-81 -26 c2 -2 -5 -3 -17 -3 -14 0 -22
6 -22 16 0 14 3 15 18 3 9 -7 19 -15 21 -16z m-839 -4 c0 -5 -4 -9 -10 -9 -5
0 -10 7 -10 16 0 8 5 12 10 9 6 -3 10 -10 10 -16z m80 4 c0 -10 -7 -27 -15
-37 -13 -17 -15 -17 -15 -4 0 9 5 20 10 23 6 3 10 12 10 18 -1 7 -13 -2 -28
-19 -15 -17 -34 -33 -44 -37 -21 -7 -53 16 -44 32 6 9 11 9 22 0 12 -10 20 -7
42 14 30 31 62 36 62 10z m988 -10 c3 -18 -4 -23 -48 -32 -28 -6 -58 -11 -66
-11 -8 0 -22 -16 -30 -36 -8 -20 -18 -34 -20 -31 -3 3 -1 14 5 25 6 12 11 34
11 51 0 30 2 31 44 31 27 0 48 6 56 15 18 21 44 15 48 -12z m-438 -3 c11 -7 9
-11 -13 -19 -16 -6 -31 -11 -35 -11 -3 0 -16 -10 -29 -22 -28 -26 -30 -14 -3
30 20 33 50 41 80 22z m-500 -22 c-1 -7 -7 -24 -15 -38 l-13 -25 -7 27 c-4 15
-4 32 0 37 9 15 35 14 35 -1z m343 -13 c-3 -9 -8 -14 -10 -11 -3 3 -2 9 2 15
9 16 15 13 8 -4z m589 -48 c-17 -46 -15 -87 4 -108 15 -17 15 -20 0 -43 -21
-33 -20 -53 4 -68 22 -14 27 -34 8 -36 -7 0 -24 -4 -37 -8 -23 -7 -24 -6 -17
39 4 26 4 53 -1 59 -14 24 -11 122 5 141 15 17 14 17 -14 2 -37 -19 -50 -19
-58 1 -3 8 -2 13 3 10 5 -3 12 1 15 10 4 10 2 13 -7 9 -6 -4 -4 0 6 8 10 8 26
13 36 10 9 -2 23 3 31 12 22 26 36 2 22 -38z m-2643 39 c-14 -13 -100 -76
-104 -76 -3 0 -5 10 -5 23 0 18 10 27 43 39 39 15 76 23 66 14z m1981 -20
c-18 -6 -36 -18 -41 -26 -15 -31 -31 -98 -25 -108 7 -11 -18 -24 -28 -15 -11
12 -6 49 10 72 11 15 15 34 11 57 -5 30 -3 34 11 30 9 -3 23 -2 30 3 7 4 25 6
39 3 26 -5 26 -5 -7 -16z m-170 10 c0 -2 3 -13 7 -23 3 -10 3 -15 -2 -11 -11
11 -65 -78 -65 -107 0 -14 8 -29 20 -35 11 -6 20 -17 20 -25 0 -22 38 -18 50
5 7 13 19 19 40 17 29 -2 30 -4 30 -48 0 -33 -6 -51 -20 -64 -19 -17 -19 -17
-8 12 6 17 8 37 5 47 -9 22 -37 20 -37 -3 0 -10 -8 -29 -18 -42 -27 -32 -52
-19 -52 26 0 30 -5 39 -35 56 -19 12 -35 24 -36 27 0 4 -2 15 -4 25 -2 10 3
30 10 44 9 17 11 32 5 43 -11 20 -4 30 20 30 10 0 23 7 30 15 11 13 40 21 40
11z m-283 -22 c1 -5 -1 -15 -6 -23 -8 -12 -11 -12 -24 1 -12 12 -13 18 -4 27
12 12 29 10 34 -5z m534 -57 c24 -15 25 -32 2 -22 -10 4 -34 11 -53 14 -43 8
-46 30 -7 49 15 7 28 18 29 25 0 7 3 -3 5 -21 3 -18 13 -38 24 -45z m625 51
c5 -7 8 -24 8 -38 1 -19 7 -26 25 -28 13 -2 27 2 31 9 11 17 70 -8 70 -30 1
-9 3 -41 5 -71 3 -30 4 -72 4 -93 0 -44 15 -67 42 -67 23 0 24 -8 3 -50 -12
-24 -19 -29 -25 -19 -5 8 -12 14 -16 15 -4 0 -16 4 -27 9 -11 5 -26 4 -37 -3
-47 -30 -53 1 -8 41 31 27 37 68 11 73 -7 1 -8 0 -2 -3 17 -8 11 -42 -9 -53
-27 -14 -28 -14 -34 20 -4 19 -13 30 -24 31 -15 0 -14 2 3 9 12 5 25 13 29 19
3 6 20 11 37 11 17 0 28 3 25 7 -4 3 -27 5 -51 5 -25 -1 -47 2 -50 7 -10 15
22 79 41 84 15 4 15 5 -2 6 -12 0 -26 -4 -33 -11 -9 -9 -12 -7 -12 10 0 14 6
22 18 23 11 0 12 2 4 6 -7 3 -19 0 -27 -7 -21 -17 -35 -3 -35 35 0 56 18 82
36 53z m-269 -27 c9 -25 17 -30 49 -33 38 -3 39 -4 36 -38 -1 -19 -2 -52 -2
-72 0 -21 -4 -38 -10 -38 -6 0 -15 -10 -21 -23 -10 -22 -95 -65 -106 -53 -10
10 14 30 49 42 27 9 32 16 35 45 1 19 0 27 -4 19 -8 -22 -34 -40 -57 -40 -11
0 -28 -7 -38 -17 -10 -9 -18 -11 -18 -6 0 6 7 14 15 17 17 6 39 53 48 104 9
47 -8 31 -27 -26 -15 -42 -37 -66 -88 -90 -21 -10 -4 23 32 62 22 24 40 47 40
52 0 4 -7 -1 -15 -12 -14 -18 -14 -18 -15 10 0 19 12 42 35 67 19 22 35 44 35
49 0 21 16 9 27 -19z m-2551 -6 c-3 -9 -11 -13 -16 -10 -8 5 -7 11 1 21 14 18
24 11 15 -11z m2015 -2 c-8 -15 -10 -15 -11 -2 0 17 10 32 18 25 2 -3 -1 -13
-7 -23z m-174 -30 c-3 -10 -5 -4 -5 12 0 17 2 24 5 18 2 -7 2 -21 0 -30z
m-1790 -2 c-8 -22 -7 -43 3 -85 10 -43 11 -62 2 -81 -7 -14 -12 -40 -12 -58
-1 -29 -3 -27 -21 23 -11 30 -20 62 -20 70 4 70 16 118 34 138 26 28 27 28 14
-7z m1573 19 c0 -5 -6 -21 -12 -36 l-13 -27 -6 24 c-7 24 -7 24 -8 2 -1 -16
-7 -23 -22 -23 -19 0 -19 2 7 35 25 33 54 47 54 25z m167 -37 c-8 -15 -25 -37
-38 -48 -19 -17 -19 -14 4 13 15 19 30 46 34 60 3 15 8 22 10 15 2 -6 -2 -24
-10 -40z m-1827 22 c0 -2 -11 -21 -25 -41 -22 -33 -25 -34 -25 -14 0 23 26 60
42 60 4 0 8 -2 8 -5z m1993 -15 c-5 -19 -23 -29 -23 -12 0 7 20 32 26 32 1 0
0 -9 -3 -20z m757 -30 c0 -9 -9 -25 -20 -35 -13 -12 -20 -29 -18 -44 2 -14 -1
-27 -7 -28 -11 -3 -12 114 -2 141 7 18 8 18 27 1 11 -10 20 -26 20 -35z m-537
23 c4 -3 0 -15 -10 -25 -18 -20 -49 -25 -36 -5 4 6 8 15 9 20 1 4 2 9 3 12 2
7 27 6 34 -2z m161 -37 c-7 -17 -14 -19 -39 -10 -14 6 -13 9 6 31 19 19 24 21
31 9 4 -8 5 -21 2 -30z m46 28 c0 -14 -3 -14 -15 -4 -8 7 -15 14 -15 16 0 2 7
4 15 4 8 0 15 -7 15 -16z m-2400 -40 c0 -21 -4 -33 -10 -29 -17 10 -11 65 7
65 2 0 3 -16 3 -36z m2233 -34 c4 -24 4 -24 6 3 1 24 3 26 21 17 30 -16 25
-40 -11 -47 -24 -4 -35 -16 -51 -49 -12 -23 -32 -48 -44 -55 -47 -25 -76 -129
-36 -129 9 0 23 -9 30 -20 10 -17 10 -20 -3 -20 -9 0 -18 6 -21 14 -8 21 -34
28 -50 15 -19 -15 -18 -39 3 -61 16 -18 16 -22 2 -46 -27 -48 -54 -28 -49 38
0 14 1 49 1 77 0 42 4 55 18 63 11 5 22 23 26 39 7 34 19 46 57 55 35 8 53 39
38 66 -14 27 -5 55 23 67 26 13 34 7 40 -27z m147 17 c0 -16 -12 -32 -41 -50
-22 -15 -46 -27 -52 -27 -6 0 -22 -10 -35 -22 -16 -15 -23 -18 -20 -8 2 8 21
26 41 39 20 13 37 33 37 43 0 11 7 18 19 18 10 0 24 7 31 15 17 20 20 19 20
-8z m26 -14 c-11 -11 -19 6 -11 24 8 17 8 17 12 0 3 -10 2 -21 -1 -24z m329
-64 c-9 -52 -27 -38 -30 23 -3 54 3 65 22 38 10 -15 13 -32 8 -61z m-599 24
c-11 -11 -19 6 -11 24 8 17 8 17 12 0 3 -10 2 -21 -1 -24z m218 -32 c-28 -42
-44 -52 -44 -27 0 15 59 80 67 73 2 -2 -9 -23 -23 -46z m-194 -1 c0 -12 -44
-24 -62 -17 -8 3 -4 9 12 15 32 14 50 14 50 2z m-147 -21 c-6 -6 -9 -26 -6
-43 3 -23 0 -36 -15 -49 -17 -15 -20 -16 -25 -3 -3 8 1 20 9 26 8 7 14 17 14
22 0 6 -6 5 -15 -2 -8 -6 -19 -9 -25 -5 -7 5 0 14 20 26 17 11 33 26 37 34 3
9 8 13 11 10 3 -3 1 -10 -5 -16z m286 18 c-2 -1 -13 -9 -24 -17 -19 -14 -19
-14 -6 3 7 9 18 17 24 17 6 0 8 -1 6 -3z m130 -29 c28 16 26 17 41 -29 14 -41
14 -42 -18 -70 -22 -20 -43 -29 -67 -29 -40 0 -55 -20 -55 -73 0 -30 -4 -37
-32 -46 -18 -7 -34 -11 -36 -11 -2 1 -13 -11 -24 -25 -11 -14 -23 -24 -25 -21
-3 3 4 17 16 32 11 15 21 35 21 45 0 11 9 28 20 39 19 19 19 20 2 20 -21 0
-42 18 -42 37 0 23 30 26 53 7 l22 -19 -19 23 c-20 23 -20 23 7 50 23 23 30
25 47 14 24 -15 60 -15 80 -1 12 8 11 9 -5 5 -11 -3 -30 3 -43 14 -19 16 -21
22 -11 47 l10 28 19 -25 c17 -22 22 -23 39 -12z m275 -1 c18 -17 8 -37 -18
-37 -28 0 -64 35 -44 43 23 10 49 7 62 -6z m-2904 -23 c0 -8 -4 -12 -10 -9 -5
3 -10 10 -10 16 0 5 5 9 10 9 6 0 10 -7 10 -16z m2450 -19 c-8 -22 -13 -25
-25 -15 -13 10 -12 15 8 30 27 23 30 20 17 -15z m374 14 c14 -11 26 -29 26
-39 0 -15 -6 -17 -40 -13 -26 4 -46 1 -57 -8 -17 -13 -17 -13 0 7 9 11 17 30
17 41 0 38 16 42 54 12z m236 1 c0 -12 -12 -26 -30 -35 -37 -19 -63 -57 -59
-87 4 -31 -8 -48 -33 -48 -19 0 -20 1 -4 25 9 13 16 38 16 54 0 36 23 61 56
61 13 0 24 4 24 8 0 11 -61 3 -76 -10 -8 -5 -14 -3 -18 8 -4 9 -5 18 -4 18 21
11 70 24 96 25 26 1 32 -3 32 -19z m-171 -81 c-45 -41 -49 -44 -49 -31 0 18
83 97 87 84 3 -7 -14 -31 -38 -53z m411 16 c0 -8 -8 -15 -18 -15 -10 0 -23 -5
-30 -12 -9 -9 -12 -6 -12 15 0 23 4 27 30 27 20 0 30 -5 30 -15z m-600 -33 c0
-23 -60 -102 -77 -102 -21 0 -15 22 15 53 26 28 26 29 3 17 -13 -6 -33 -13
-45 -15 -11 -1 -29 -6 -38 -10 -10 -4 -18 -3 -18 1 1 20 17 31 54 37 22 4 47
13 55 22 21 21 51 19 51 -3z m186 -26 c-8 -20 -20 -36 -25 -36 -15 0 -14 6 11
44 28 43 34 39 14 -8z m33 -2 c-17 -21 -21 -11 -8 22 10 23 13 25 16 11 3 -10
-1 -25 -8 -33z m147 -18 c26 5 34 3 34 -9 0 -20 -19 -33 -57 -40 -40 -8 -47 2
-37 56 7 42 7 42 16 14 9 -25 13 -27 44 -21z m107 18 c12 -21 63 -17 85 7 17
18 20 18 26 4 6 -16 -36 -65 -56 -65 -5 0 -7 -4 -4 -8 3 -5 -8 -6 -24 -4 -21
3 -27 8 -23 21 3 10 0 8 -10 -5 -16 -21 -51 -37 -61 -27 -2 2 0 17 4 33 6 21
4 32 -6 41 -12 10 -12 14 -2 21 17 11 61 0 71 -18z m-385 4 c7 -7 12 -16 12
-22 0 -6 -5 -5 -12 2 -7 7 -21 12 -32 12 -17 0 -18 2 -6 10 19 13 24 12 38 -2z
m292 -2 c0 -2 -7 -7 -16 -10 -8 -3 -12 -2 -9 4 6 10 25 14 25 6z m-332 -32 c2
-1 -9 -21 -24 -44 -25 -37 -27 -46 -18 -79 12 -44 2 -81 -22 -81 -12 0 -15 7
-12 25 3 13 1 22 -3 19 -15 -9 -10 -64 6 -70 8 -4 15 -10 15 -15 0 -17 -32 5
-41 29 -7 19 -4 37 16 79 20 45 22 53 8 42 -10 -8 -1 5 20 29 44 50 51 77 7
30 l-30 -33 22 47 c19 39 25 45 38 35 8 -6 16 -12 18 -13z m-528 -13 c0 -12
-20 -25 -27 -18 -7 7 6 27 18 27 5 0 9 -4 9 -9z m200 -17 c0 -23 -63 -82 -95
-88 -28 -6 -29 -5 -11 9 11 8 25 15 31 15 16 0 60 62 57 79 -2 7 1 10 7 6 6
-3 11 -13 11 -21z m166 -50 c-2 -53 -9 -73 -32 -107 -17 -23 -37 -43 -45 -45
-23 -4 -38 38 -32 92 5 39 10 49 35 62 16 8 33 26 38 39 5 14 16 25 25 25 12
0 14 -12 11 -66z m218 54 c16 -62 23 -73 44 -72 17 0 19 -2 11 -13 -6 -7 -16
-13 -22 -13 -13 0 -57 -40 -57 -52 0 -5 9 -29 20 -53 18 -39 19 -49 8 -85 -10
-32 -18 -40 -37 -40 -14 0 -36 -14 -56 -36 -31 -34 -35 -35 -78 -29 -43 7 -46
5 -72 -29 -32 -43 -45 -45 -45 -10 0 14 -11 49 -25 78 -25 52 -25 53 -7 94 16
41 42 57 42 27 0 -25 52 -65 77 -59 26 7 79 -4 69 -14 -4 -3 -24 -6 -44 -5
-31 2 -33 1 -12 -6 24 -7 24 -8 -11 -19 -21 -8 -42 -23 -50 -40 -8 -15 -18
-30 -24 -34 -7 -5 -6 -8 1 -8 5 0 21 14 33 31 22 29 26 31 67 24 44 -6 46 -5
99 48 30 30 55 61 54 68 0 11 -2 10 -6 -1 -10 -24 -92 -100 -108 -100 -22 0
-18 14 8 25 50 22 91 193 53 224 -9 7 -16 21 -16 31 0 15 6 16 40 10 22 -4 40
-3 40 2 0 4 -13 11 -29 14 -27 6 -29 8 -19 30 12 25 46 33 52 12z m-426 -27
c-28 -35 -83 -40 -60 -5 6 10 55 31 75 33 5 1 -2 -12 -15 -28z m517 9 c-18
-20 -46 -26 -58 -13 -9 8 32 31 57 32 18 1 18 0 1 -19z m-2639 -82 l29 -31
-32 22 c-35 23 -50 41 -35 41 4 0 21 -14 38 -32z m2024 -18 c0 -5 -5 -10 -11
-10 -5 0 -7 5 -4 10 3 6 8 10 11 10 2 0 4 -4 4 -10z m155 -9 c-9 -15 -66 -41
-76 -35 -18 11 -8 24 19 24 15 0 34 5 42 10 19 12 23 12 15 1z m-73 -49 c15
-2 40 4 57 13 34 17 44 2 14 -21 -40 -30 -123 0 -123 45 0 10 5 6 13 -9 8 -15
23 -26 39 -28z m263 -1 c-8 -25 -41 -46 -50 -31 -6 10 44 64 52 56 3 -3 2 -14
-2 -25z m-2269 -43 c-7 -5 -6 -8 4 -8 17 0 94 -49 87 -56 -7 -7 -91 32 -106
50 -11 13 -11 16 0 16 7 0 3 11 -12 27 l-24 27 31 -25 c20 -15 27 -27 20 -31z
m2374 8 c0 -3 -4 -8 -10 -11 -5 -3 -10 -1 -10 4 0 6 5 11 10 11 6 0 10 -2 10
-4z m-2333 -81 c9 -24 -1 -27 -20 -5 -14 17 -15 20 -2 20 9 0 18 -7 22 -15z
m-7 -103 c-1 -13 -6 -11 -25 11 -14 15 -25 36 -25 45 1 13 6 11 25 -11 14 -15
25 -36 25 -45z m79 -60 c21 -39 4 -36 -23 5 -30 43 -36 79 -7 42 10 -13 24
-35 30 -47z m1657 36 c-28 -16 -117 -38 -151 -37 -19 1 -5 6 35 14 36 8 76 18
90 24 34 13 50 13 26 -1z"/>
<path d="M678 4123 c7 -3 16 -2 19 1 4 3 -2 6 -13 5 -11 0 -14 -3 -6 -6z"/>
<path d="M728 4113 c6 -2 18 -2 25 0 6 3 1 5 -13 5 -14 0 -19 -2 -12 -5z"/>
<path d="M793 4103 c9 -2 23 -2 30 0 6 3 -1 5 -18 5 -16 0 -22 -2 -12 -5z"/>
<path d="M893 4093 c9 -2 23 -2 30 0 6 3 -1 5 -18 5 -16 0 -22 -2 -12 -5z"/>
<path d="M993 4083 c9 -2 23 -2 30 0 6 3 -1 5 -18 5 -16 0 -22 -2 -12 -5z"/>
<path d="M803 3443 c9 -2 23 -2 30 0 6 3 -1 5 -18 5 -16 0 -22 -2 -12 -5z"/>
<path d="M3415 4020 c-3 -6 1 -7 9 -4 18 7 21 14 7 14 -6 0 -13 -4 -16 -10z"/>
<path d="M3853 4024 c-6 -13 -7 -24 -3 -24 9 0 25 39 18 45 -2 2 -8 -7 -15
-21z"/>
<path d="M3888 3623 c7 -3 16 -2 19 1 4 3 -2 6 -13 5 -11 0 -14 -3 -6 -6z"/>
<path d="M3585 3199 c-4 -6 -5 -12 -2 -15 2 -3 7 2 10 11 7 17 1 20 -8 4z"/>
<path d="M1708 5833 c7 -3 16 -2 19 1 4 3 -2 6 -13 5 -11 0 -14 -3 -6 -6z"/>
<path d="M1855 5650 c64 -8 171 -13 164 -6 -2 2 -53 6 -114 9 -78 4 -93 3 -50
-3z"/>
<path d="M2548 5653 c12 -2 30 -2 40 0 9 3 -1 5 -23 4 -22 0 -30 -2 -17 -4z"/>
<path d="M2363 5643 c9 -2 23 -2 30 0 6 3 -1 5 -18 5 -16 0 -22 -2 -12 -5z"/>
<path d="M2513 5583 c15 -2 39 -2 55 0 15 2 2 4 -28 4 -30 0 -43 -2 -27 -4z"/>
<path d="M1998 5573 c17 -2 47 -2 65 0 17 2 3 4 -33 4 -36 0 -50 -2 -32 -4z"/>
<path d="M2388 5573 c12 -2 30 -2 40 0 9 3 -1 5 -23 4 -22 0 -30 -2 -17 -4z"/>
<path d="M3443 5305 c0 -22 2 -30 4 -17 2 12 2 30 0 40 -3 9 -5 -1 -4 -23z"/>
<path d="M1652 4920 c0 -14 2 -19 5 -12 2 6 2 18 0 25 -3 6 -5 1 -5 -13z"/>
<path d="M1641 4874 c0 -11 3 -14 6 -6 3 7 2 16 -1 19 -3 4 -6 -2 -5 -13z"/>
<path d="M2824 3978 l-19 -23 23 19 c12 11 22 21 22 23 0 8 -8 2 -26 -19z"/>
<path d="M2780 3916 c0 -4 9 -19 20 -33 11 -14 20 -21 20 -16 0 6 -9 20 -20
33 -11 13 -20 20 -20 16z"/>
<path d="M2816 3777 c3 -10 9 -15 12 -12 3 3 0 11 -7 18 -10 9 -11 8 -5 -6z"/>
<path d="M1635 3760 c3 -5 16 -10 28 -9 21 0 21 1 2 9 -28 12 -37 12 -30 0z"/>
<path d="M1765 3734 c-16 -8 -21 -11 -10 -8 11 4 41 9 68 11 36 4 47 2 47 -9
0 -8 -5 -19 -11 -25 -6 -6 9 -4 34 5 l46 17 -42 12 c-55 16 -95 16 -132 -3z"/>
<path d="M1946 3739 c3 -5 26 -9 51 -9 26 0 44 2 42 4 -9 8 -98 13 -93 5z"/>
<path d="M2088 3723 c7 -3 16 -2 19 1 4 3 -2 6 -13 5 -11 0 -14 -3 -6 -6z"/>
<path d="M2168 3723 c7 -3 16 -2 19 1 4 3 -2 6 -13 5 -11 0 -14 -3 -6 -6z"/>
<path d="M2070 3700 c-13 -9 -13 -10 0 -9 8 0 24 4 35 9 l20 9 -20 0 c-11 0
-27 -4 -35 -9z"/>
<path d="M2233 3681 c-12 -19 -11 -19 18 -9 23 8 27 13 17 19 -19 12 -22 11
-35 -10z"/>
<path d="M2368 3693 c6 -2 18 -2 25 0 6 3 1 5 -13 5 -14 0 -19 -2 -12 -5z"/>
<path d="M2014 3674 c-18 -14 -18 -14 6 -3 31 14 36 19 24 19 -6 0 -19 -7 -30
-16z"/>
<path d="M1953 3634 l-28 -25 33 22 c17 13 32 24 32 26 0 8 -11 1 -37 -23z"/>
<path d="M2383 3643 c15 -2 37 -2 50 0 12 2 0 4 -28 4 -27 0 -38 -2 -22 -4z"/>
<path d="M2393 3623 c9 -2 23 -2 30 0 6 3 -1 5 -18 5 -16 0 -22 -2 -12 -5z"/>
<path d="M2305 3604 c-16 -8 -34 -20 -40 -26 -5 -6 6 -2 25 7 19 10 46 21 60
26 20 6 21 7 5 8 -11 1 -33 -6 -50 -15z"/>
<path d="M2544 3592 c11 -12 17 -24 15 -26 -2 -2 -64 -27 -137 -54 -144 -54
-159 -64 -205 -132 -16 -25 -42 -59 -56 -75 -14 -17 -8 -12 14 11 22 23 52 59
66 81 27 41 77 71 128 78 15 2 52 15 82 31 30 15 77 35 104 44 42 15 47 19 30
25 -11 5 -29 15 -40 24 -20 16 -20 16 -1 -7z"/>
<path d="M2229 3553 c-13 -16 -12 -17 4 -4 9 7 17 15 17 17 0 8 -8 3 -21 -13z"/>
<path d="M1994 3482 c-39 -37 -90 -96 -113 -132 l-42 -65 36 40 36 40 -17 -43
c-9 -24 -14 -45 -11 -48 2 -3 17 26 32 65 14 38 33 75 41 82 13 10 13 8 4 -15
-16 -44 -11 -44 13 0 32 58 85 131 99 137 7 3 9 6 3 6 -5 0 -42 -30 -81 -67z"/>
<path d="M2144 3488 l-19 -23 23 19 c21 18 27 26 19 26 -2 0 -12 -10 -23 -22z"/>
<path d="M1799 3453 c-23 -54 -43 -137 -37 -155 3 -7 10 16 17 50 7 35 21 83
31 108 11 24 17 44 14 44 -2 0 -14 -21 -25 -47z"/>
<path d="M1939 3473 c-13 -16 -33 -39 -44 -53 -17 -21 -17 -22 -2 -11 19 15
82 91 75 91 -2 0 -15 -12 -29 -27z"/>
<path d="M2430 3463 c-105 -62 -254 -202 -315 -296 -27 -43 -11 -42 18 1 34
49 114 126 98 94 -16 -31 -41 -102 -36 -102 2 0 22 36 45 79 23 43 51 87 62
97 21 19 21 19 9 -3 -15 -30 -31 -73 -27 -73 2 0 14 21 27 47 23 48 89 122
144 161 41 29 29 27 -25 -5z"/>
<path d="M2735 3471 c-63 -11 -126 -46 -180 -102 l-50 -53 45 38 c56 46 131
82 223 106 53 14 63 19 37 18 -19 0 -53 -3 -75 -7z"/>
<path d="M2853 3467 c8 -22 -13 -46 -125 -143 -99 -86 -222 -224 -199 -224 5
0 17 12 26 27 25 37 96 113 106 113 5 0 -1 -17 -14 -37 -13 -21 -29 -49 -36
-63 -10 -21 -8 -20 11 5 51 67 125 138 179 170 68 42 106 79 51 51 -19 -10
-36 -16 -38 -13 -2 2 14 29 35 59 36 52 38 57 19 61 -12 4 -18 1 -15 -6z"/>
<path d="M2093 3418 c-41 -64 -71 -146 -77 -208 -5 -54 -5 -54 4 -11 17 77 42
144 76 204 39 66 37 77 -3 15z"/>
<path d="M2258 3370 c-42 -39 -91 -89 -108 -113 -25 -32 -20 -29 21 15 30 32
81 82 114 113 33 30 57 54 54 55 -3 0 -40 -32 -81 -70z"/>
<path d="M1860 3370 c-6 -11 -8 -20 -6 -20 3 0 10 9 16 20 6 11 8 20 6 20 -3
0 -10 -9 -16 -20z"/>
<path d="M1747 3260 c-3 -12 0 -20 8 -20 8 0 11 8 8 20 -3 11 -7 20 -8 20 -1
0 -5 -9 -8 -20z"/>
<path d="M2079 3163 c-13 -16 -12 -17 4 -4 16 13 21 21 13 21 -2 0 -10 -8 -17
-17z"/>
<path d="M2010 3105 c0 -16 16 -20 24 -6 3 5 -1 11 -9 15 -9 3 -15 0 -15 -9z"/>
<path d="M3332 3070 c0 -14 2 -19 5 -12 2 6 2 18 0 25 -3 6 -5 1 -5 -13z"/>
<path d="M1544 3056 c11 -9 27 -16 35 -15 14 0 14 1 1 6 -8 3 -24 10 -35 15
-20 9 -20 9 -1 -6z"/>
<path d="M2362 3003 c-1 -29 1 -53 6 -53 4 0 32 23 62 51 l55 51 -51 -41 c-29
-23 -54 -41 -57 -41 -3 0 -8 19 -10 43 -3 40 -4 40 -5 -10z"/>
<path d="M1630 2988 c0 -8 24 -12 70 -10 14 0 41 -2 60 -5 l35 -6 -30 -8 -30
-7 34 1 c40 2 53 24 19 31 -43 9 -158 12 -158 4z"/>
<path d="M1262 2970 c0 -14 2 -19 5 -12 2 6 2 18 0 25 -3 6 -5 1 -5 -13z"/>
<path d="M1340 2903 c0 -6 7 -16 15 -23 8 -7 15 -18 15 -24 0 -7 7 -21 14 -32
13 -17 13 -15 2 19 -13 38 -46 81 -46 60z"/>
<path d="M1750 2906 c0 -2 7 -7 16 -10 8 -3 12 -2 9 4 -6 10 -25 14 -25 6z"/>
<path d="M1271 2854 c0 -11 3 -14 6 -6 3 7 2 16 -1 19 -3 4 -6 -2 -5 -13z"/>
<path d="M1428 2782 c13 -17 33 -37 44 -43 17 -9 18 -13 7 -20 -10 -6 -8 -9 9
-9 12 0 22 1 22 3 0 1 -24 25 -52 52 -40 38 -47 42 -30 17z"/>
<path d="M4077 2745 c-16 -20 -53 -49 -83 -66 -30 -17 -59 -40 -65 -50 -13
-24 -4 -24 37 2 41 25 42 21 8 -32 -14 -23 -24 -43 -21 -45 2 -2 21 25 41 61
34 56 66 97 66 82 0 -14 -93 -203 -103 -209 -7 -4 -15 0 -19 10 -6 16 -7 16
-7 0 -1 -10 -19 -27 -41 -38 -22 -11 -40 -25 -40 -30 0 -12 -52 -86 -92 -132
-44 -49 -96 -136 -108 -179 l-9 -34 20 28 c28 36 37 34 42 -10 l4 -38 1 41 c1
28 7 44 18 48 24 9 24 9 25 -41 l1 -48 10 51 c7 40 15 54 34 63 14 6 29 11 34
11 8 0 -91 -239 -156 -380 -14 -30 -34 -87 -44 -127 -11 -39 -35 -107 -55
-149 -40 -88 -40 -109 1 -37 15 26 33 58 40 70 8 12 14 33 14 46 0 48 208 561
247 609 31 38 129 265 125 289 -1 8 18 62 44 120 49 110 65 149 61 149 -1 0
-15 -16 -30 -35z"/>
<path d="M1760 2723 c23 -30 27 -51 5 -33 -26 22 -16 -4 16 -40 27 -30 29 -31
14 -7 -9 16 -15 31 -12 33 9 9 60 -18 79 -42 11 -14 26 -23 33 -20 7 2 18 -1
25 -7 7 -7 2 3 -10 21 -27 36 -36 42 -20 12 6 -11 7 -20 2 -20 -15 0 -34 28
-28 39 4 6 -3 15 -14 21 -12 6 -18 16 -13 23 4 7 -1 6 -11 -2 -15 -13 -19 -13
-26 -1 -5 8 -7 17 -5 20 2 3 -9 11 -26 17 l-29 11 20 -25z"/>
<path d="M1630 2735 c0 -4 9 -18 20 -32 11 -14 20 -22 20 -18 0 4 -9 18 -20
32 -11 14 -20 22 -20 18z"/>
<path d="M1709 2685 c107 -128 108 -129 116 -115 5 8 4 11 -3 6 -6 -3 -21 8
-34 25 -13 17 -45 54 -72 82 l-49 52 42 -50z"/>
<path d="M1672 2625 c0 -16 2 -22 5 -12 2 9 2 23 0 30 -3 6 -5 -1 -5 -18z"/>
<path d="M1817 2613 c-4 -3 -7 -11 -7 -17 0 -6 5 -5 12 2 6 6 9 14 7 17 -3 3
-9 2 -12 -2z"/>
<path d="M1848 2588 c5 -5 16 -8 23 -6 8 3 3 7 -10 11 -17 4 -21 3 -13 -5z"/>
<path d="M1908 2573 c7 -3 16 -2 19 1 4 3 -2 6 -13 5 -11 0 -14 -3 -6 -6z"/>
<path d="M3345 2289 c-16 -5 -66 -14 -110 -20 -44 -7 -109 -23 -145 -36 -54
-21 -86 -25 -190 -28 -175 -3 -198 -13 -371 -154 -62 -50 -152 -96 -213 -108
l-41 -8 60 -5 c65 -5 63 -4 52 -70 -5 -26 -2 -22 11 15 14 40 21 49 37 47 28
-4 33 -4 98 4 54 6 57 6 51 -12 -6 -17 -5 -17 7 -3 8 9 28 19 46 22 27 5 32 3
36 -16 4 -22 4 -22 6 -1 1 19 8 23 47 26 l46 3 -5 -50 c-4 -34 -3 -42 3 -25 4
14 8 37 9 53 1 22 6 27 25 27 14 0 28 5 31 10 12 19 25 10 26 -17 1 -23 3 -24
6 -6 5 24 63 52 63 30 0 -22 -39 -204 -66 -309 -50 -197 -63 -267 -50 -273 6
-3 -4 -3 -21 0 -18 2 -33 0 -33 -5 0 -6 -9 -10 -20 -10 -15 0 -20 7 -21 28 0
15 -4 36 -9 47 -5 14 -7 5 -6 -30 l1 -50 -40 0 c-36 0 -40 3 -46 30 l-7 30 -1
-28 c-1 -20 -8 -30 -27 -37 -36 -14 -44 -12 -37 7 4 10 2 14 -5 9 -6 -3 -12 3
-15 16 -3 16 -5 13 -6 -11 -1 -26 -4 -32 -17 -27 -9 3 -19 6 -24 6 -5 0 -11 8
-13 18 -4 13 -5 13 -6 -4 -1 -13 -10 -24 -23 -28 -43 -11 -47 -7 -51 47 l-3
52 -2 -52 c-2 -49 -4 -53 -27 -53 -24 0 -25 2 -27 73 l-2 72 -5 -70 c-6 -66
-8 -70 -30 -70 l-24 0 -1 160 c-1 88 1 219 3 290 4 108 2 130 -10 130 -9 0
-13 -9 -12 -25 5 -61 1 -450 -5 -500 -6 -47 -10 -55 -29 -58 -22 -3 -22 -1
-26 120 l-3 123 -2 -124 c-2 -108 -4 -122 -18 -117 -9 3 -20 6 -25 6 -5 0 -10
21 -11 48 l-1 47 -6 -49 c-7 -58 -28 -73 -34 -24 l-4 33 -1 -31 c-2 -27 -7
-33 -34 -39 -40 -9 -99 -9 -155 0 -40 7 -43 10 -44 39 -2 30 -2 30 -6 4 -4
-27 -7 -28 -63 -28 -73 0 -77 6 -85 121 -4 46 -10 93 -15 104 -13 29 -40 197
-47 293 l-6 82 42 0 c31 0 40 -3 35 -12 -5 -10 -4 -10 6 -1 7 7 15 36 18 66 4
53 4 54 -39 92 -24 20 -90 59 -145 85 -91 43 -119 51 -270 75 -219 36 -269 40
-336 26 -65 -14 -106 -51 -137 -124 -17 -40 -18 -49 -6 -53 8 -3 19 -3 25 1 5
3 10 1 10 -5 0 -7 6 -10 12 -8 39 13 67 -76 69 -220 2 -86 2 -87 9 -27 6 55 2
109 -16 192 -6 29 -4 31 15 26 11 -3 21 -13 21 -22 0 -13 2 -13 9 -2 10 16 39
8 46 -11 2 -7 11 -35 19 -63 14 -46 14 -39 -1 36 -4 23 -2 29 11 29 9 0 21
-10 26 -22 6 -16 9 -18 9 -7 1 9 7 19 15 22 10 4 17 -14 29 -71 8 -42 14 -79
12 -80 -2 -2 -10 9 -19 25 -8 15 -15 24 -16 19 0 -5 11 -29 25 -52 25 -42 55
-148 95 -328 11 -49 19 -91 17 -92 -1 -2 -26 4 -55 12 -48 14 -52 18 -52 47 0
24 -3 28 -10 17 -12 -19 -17 -12 -35 41 -13 39 -14 40 -9 9 3 -19 14 -47 25
-62 14 -20 16 -28 7 -28 -29 0 -56 32 -77 90 -13 34 -25 60 -27 57 -3 -3 6
-32 19 -65 21 -51 22 -60 9 -55 -42 15 -74 70 -127 216 -24 67 -34 85 -42 75
-8 -10 1 -43 34 -126 24 -63 41 -117 38 -120 -4 -4 -17 5 -30 20 -13 15 -25
23 -27 18 -6 -18 -93 61 -116 106 -45 87 -163 400 -169 446 -5 45 -7 46 -29
36 -13 -6 -24 -18 -24 -27 0 -9 36 -99 81 -200 66 -150 79 -191 74 -217 -6
-35 25 -94 120 -229 83 -118 128 -204 130 -248 2 -49 66 -153 107 -175 14 -8
32 -26 41 -41 61 -103 231 -167 553 -206 69 -9 149 -20 177 -26 49 -9 511 -13
539 -5 7 3 61 7 119 10 216 12 460 52 657 107 135 38 163 54 206 114 19 28 47
67 62 88 15 21 28 52 29 70 1 18 8 52 14 76 17 60 9 60 -19 1 -13 -28 -30 -50
-38 -50 -9 0 -12 6 -8 18 4 10 -2 7 -14 -8 -11 -14 -20 -29 -20 -33 0 -5 -5
-5 -11 -1 -6 3 -15 0 -20 -7 -6 -11 -9 -11 -9 -1 0 7 19 47 43 90 35 65 47 78
70 80 28 4 29 4 12 -22 -10 -14 -15 -26 -13 -26 17 0 59 87 77 157 26 102 26
107 1 100 -11 -3 -20 0 -20 6 0 7 -5 4 -10 -5 -6 -9 -25 -20 -43 -24 -17 -3
-47 -14 -64 -22 -18 -9 -35 -13 -39 -10 -8 9 90 321 145 461 24 60 28 88 30
173 l1 101 -40 27 c-43 28 -49 29 -95 15z m115 -229 c0 -5 -11 -40 -26 -77
-14 -38 -37 -102 -51 -143 -14 -41 -36 -95 -48 -120 -12 -25 -34 -82 -49 -128
-29 -87 -46 -112 -75 -112 -15 0 -86 -20 -131 -37 -8 -4 -19 -5 -24 -4 -4 1
-14 -3 -21 -9 -7 -6 -19 -8 -28 -4 -8 3 -18 0 -22 -6 -4 -6 -15 -8 -25 -5 -10
3 -21 1 -25 -5 -10 -16 -25 -12 -25 7 0 13 -3 12 -19 -6 -11 -13 -25 -19 -35
-15 -19 7 -19 -4 -1 119 18 128 26 154 65 210 38 55 66 118 73 165 l6 35 -14
-30 c-8 -16 -14 -39 -15 -50 0 -28 -62 -133 -68 -117 -2 8 6 65 18 127 16 83
27 115 39 118 9 3 25 8 35 13 17 7 19 4 12 -27 l-6 -34 20 33 c11 18 28 32 39
32 18 0 17 -4 -11 -55 -16 -30 -27 -55 -25 -55 3 0 19 24 35 53 35 63 53 79
71 67 11 -6 10 -15 -8 -44 -13 -20 -20 -36 -17 -36 3 0 18 21 33 48 28 47 28
47 80 47 29 0 54 4 56 8 1 5 22 11 45 14 38 5 42 4 37 -13 -4 -13 -2 -11 6 4
7 12 19 23 28 24 9 0 21 2 28 2 6 1 15 5 19 9 10 10 24 9 24 -3z m-2319 -67
c0 -27 1 -27 9 -5 5 12 17 22 27 22 15 0 18 -7 15 -47 -2 -27 1 -66 6 -88 8
-32 9 -25 5 37 -5 67 -4 78 11 84 10 4 29 1 42 -7 22 -11 25 -18 20 -49 -4
-26 -3 -30 4 -15 5 11 9 30 9 43 1 12 7 22 15 22 15 0 70 -64 105 -120 11 -19
21 -30 21 -24 0 6 -18 37 -41 68 -23 32 -39 59 -37 62 9 8 257 -20 252 -28 -3
-5 2 -88 11 -184 10 -97 14 -190 11 -207 -4 -20 -3 -27 3 -18 9 14 14 -6 26
-121 l6 -58 -35 0 c-19 0 -47 5 -61 12 -23 10 -25 16 -25 82 0 39 7 96 15 126
8 30 14 64 14 75 -2 47 -31 -98 -37 -185 -7 -92 -20 -118 -34 -68 -3 14 -6 17
-7 7 -1 -22 -28 -31 -52 -19 -10 6 -28 29 -39 50 -11 22 -23 40 -25 40 -3 0 3
-17 14 -39 11 -21 18 -41 14 -44 -8 -9 -51 22 -56 41 -2 9 -3 7 -2 -5 1 -13
-1 -23 -6 -23 -20 0 -39 14 -39 29 0 9 -5 23 -10 31 -8 11 -9 8 -4 -12 5 -23
3 -28 -13 -28 -16 0 -24 15 -43 76 -12 41 -20 78 -17 80 3 3 17 -17 33 -45 15
-28 29 -49 31 -47 3 2 -13 33 -34 68 -50 82 -83 180 -84 254 -1 46 -3 52 -8
29 l-7 -30 -7 30 c-3 17 -9 50 -12 75 -3 25 -8 57 -11 73 -4 20 -2 27 10 27
11 0 16 -9 17 -27z m-168 -624 c16 -7 33 -34 55 -87 17 -42 30 -78 28 -80 -11
-10 -48 23 -67 60 -23 46 -50 118 -44 118 2 0 15 -5 28 -11z m2334 -119 c-38
-69 -46 -80 -58 -68 -11 12 -16 11 -35 -11 l-23 -26 4 35 c1 19 11 58 22 85
17 44 22 50 48 51 17 0 29 6 28 12 -2 6 3 9 11 6 8 -3 17 0 21 6 5 8 11 8 17
2 7 -7 -5 -38 -35 -92z m-2217 80 c3 -1 8 -2 12 -1 9 1 68 -152 68 -176 0 -15
-2 -15 -14 -3 -13 14 -106 175 -106 184 0 4 27 1 40 -4z m140 -53 l44 -12 24
-78 c25 -83 24 -119 -3 -97 -8 7 -15 9 -15 4 -1 -15 -23 28 -47 91 -25 62 -24
44 1 -37 14 -43 13 -46 -2 -40 -9 3 -23 12 -30 19 -13 12 -42 89 -56 147 -6
26 -5 28 16 22 13 -4 43 -12 68 -19z m1950 13 c0 -5 -11 -39 -24 -76 -14 -37
-23 -71 -20 -75 2 -4 -4 -7 -13 -7 -10 1 -29 -2 -42 -6 -23 -8 -24 -7 -17 25
4 24 3 30 -4 19 -5 -8 -10 -23 -10 -32 0 -9 -10 -20 -22 -23 -13 -4 -31 -9
-40 -11 -12 -4 -18 0 -19 13 0 14 -2 15 -6 3 -8 -19 -23 -30 -45 -30 -13 0
-18 11 -21 43 l-4 42 -1 -47 c-2 -40 -5 -48 -21 -48 -11 0 -23 -4 -26 -10 -13
-22 -20 -8 -18 38 l1 47 -6 -45 c-4 -25 -10 -44 -14 -42 -11 3 -11 6 -3 69 5
41 9 52 17 42 7 -10 8 -5 4 18 -4 26 -2 33 15 38 24 8 23 9 38 -30 l11 -30 -6
32 c-6 34 -5 35 69 46 26 4 27 2 29 -37 l1 -41 4 42 c4 41 5 42 54 52 27 6 53
10 57 9 4 0 14 1 22 5 49 18 60 20 60 7z m-1796 -47 c21 8 85 -171 66 -183 -8
-5 -22 -4 -31 1 -10 5 -26 6 -36 3 -13 -4 -15 -3 -5 4 11 8 9 24 -12 91 -30
96 -32 108 -11 91 8 -7 21 -10 29 -7z m96 -20 c11 3 22 1 25 -3 3 -5 22 -9 43
-8 57 1 67 -4 73 -42 l6 -35 2 39 c1 30 4 37 17 32 9 -3 19 -6 24 -6 5 0 11
-26 15 -57 3 -32 7 -71 9 -88 l4 -30 -56 0 c-51 0 -57 2 -63 25 -4 14 -7 18
-8 8 -1 -21 -21 -28 -44 -16 -10 5 -25 7 -32 4 -9 -3 -23 23 -44 85 -31 89
-33 121 -5 98 8 -6 23 -9 34 -6z m1150 -53 c-33 -42 -60 -99 -60 -128 0 -10
-6 -19 -12 -20 -25 -4 -114 -13 -170 -18 l-57 -6 9 34 c6 18 10 42 9 53 0 11
-6 -2 -13 -30 -7 -32 -16 -50 -26 -50 -12 0 -15 14 -13 73 1 41 7 80 13 87 10
12 47 18 173 27 54 4 53 8 32 -93 -9 -40 -13 -74 -11 -76 5 -5 24 80 33 143 5
37 7 40 33 36 16 -2 36 0 46 6 38 21 45 1 14 -38z m140 38 c0 -7 -7 -42 -15
-77 -9 -36 -13 -71 -11 -78 5 -13 0 -14 -79 -18 -17 -1 -40 -5 -53 -9 -34 -11
-37 15 -9 76 37 81 76 118 126 118 26 0 41 -5 41 -12z m-964 -18 c8 0 14 -8
15 -17 0 -16 1 -16 7 -2 8 18 41 17 53 -3 7 -10 9 -8 9 6 0 16 6 18 58 12 97
-12 92 -6 92 -102 l0 -84 -45 0 -45 0 -2 38 -1 37 -4 -37 c-4 -32 -8 -38 -28
-38 -13 0 -31 7 -39 16 -15 14 -16 14 -16 0 0 -18 -32 -21 -60 -6 -14 8 -20
27 -25 95 -4 47 -12 85 -17 85 -5 0 -7 -8 -4 -17 2 -10 8 -48 12 -85 5 -58 4
-68 -9 -68 -16 0 -20 15 -32 116 -6 59 -1 68 39 60 16 -3 35 -6 42 -6z m406
-75 c-5 -99 -10 -115 -38 -115 -22 0 -24 4 -26 53 l-1 52 -6 -50 c-5 -38 -10
-51 -25 -53 -10 -2 -22 2 -27 10 -6 10 -9 10 -9 1 0 -7 -7 -13 -15 -13 -12 0
-15 17 -15 90 l0 91 83 -3 82 -3 -3 -60z m77 18 c-5 -21 -9 -57 -9 -80 0 -32
-4 -43 -15 -43 -17 0 -19 24 -9 108 5 40 11 52 24 52 16 0 17 -5 9 -37z m-927
-205 c-10 -10 -16 -8 -30 5 -15 16 -15 19 -2 27 21 13 49 -15 32 -32z m1628
27 c0 -9 -36 -23 -79 -30 -32 -5 -42 -4 -39 5 2 7 23 14 47 15 23 2 45 6 49 9
6 7 22 8 22 1z m-1477 -20 c59 -8 71 -21 41 -46 -14 -11 -18 -10 -30 6 -8 10
-14 23 -14 29 0 5 -3 7 -6 4 -3 -4 -1 -16 6 -27 9 -17 8 -21 -5 -21 -14 0 -28
12 -65 56 -13 16 -13 17 1 12 9 -3 41 -9 72 -13z m1254 -11 c-3 -3 -12 -4 -19
-1 -8 3 -5 6 6 6 11 1 17 -2 13 -5z m-1119 -36 c3 -27 2 -28 -48 -28 l-51 0
21 31 c29 40 73 38 78 -3z m1049 26 c-3 -3 -12 -4 -19 -1 -8 3 -5 6 6 6 11 1
17 -2 13 -5z m-987 -8 c0 -8 -31 -36 -41 -36 -5 0 -9 9 -9 20 0 15 7 20 25 20
14 0 25 -2 25 -4z m950 -12 c0 -11 -28 -25 -77 -39 -18 -5 -23 -2 -23 12 0 11
5 24 11 30 14 14 89 11 89 -3z m-804 -4 c8 0 15 -8 15 -17 1 -17 2 -17 6 0 6
23 78 24 87 1 11 -29 6 -44 -14 -44 -15 0 -20 7 -21 28 l-2 27 -4 -26 c-4 -24
-9 -27 -41 -27 -41 0 -82 21 -82 42 0 8 -6 17 -12 20 -7 4 2 4 21 1 18 -3 40
-5 47 -5z m632 -17 c-3 -26 -7 -28 -51 -31 -45 -3 -48 -2 -45 20 3 22 29 35
76 37 20 1 23 -3 20 -26z m62 -4 c0 -14 -7 -19 -25 -19 -18 0 -25 5 -25 19 0
11 6 21 13 24 20 7 37 -4 37 -24z m-170 -4 c0 -25 -13 -31 -44 -19 -9 3 -16
13 -16 22 0 12 -3 13 -12 4 -16 -16 -28 -15 -28 3 0 11 12 15 50 15 47 0 50
-2 50 -25z m-340 -10 c0 -21 -5 -25 -30 -25 -25 0 -30 4 -30 25 0 21 5 25 30
25 25 0 30 -4 30 -25z m41 8 c1 -17 2 -17 6 0 6 24 43 22 43 -3 0 -11 -1 -20
-2 -20 -80 -12 -78 -13 -78 14 0 29 29 37 31 9z m89 2 c-7 -8 -16 -15 -21 -15
-5 0 -9 7 -9 15 0 9 9 15 21 15 18 0 19 -2 9 -15z"/>
<path d="M3198 1993 c-2 -5 -1 -33 3 -63 l6 -55 1 63 c2 57 -1 74 -10 55z"/>
<path d="M3252 1950 c-1 -30 -4 -73 -7 -95 l-5 -40 10 33 c6 18 9 61 7 95 l-3
62 -2 -55z"/>
<path d="M3332 1950 c0 -14 2 -19 5 -12 2 6 2 18 0 25 -3 6 -5 1 -5 -13z"/>
<path d="M3321 1884 c0 -11 3 -14 6 -6 3 7 2 16 -1 19 -3 4 -6 -2 -5 -13z"/>
<path d="M3076 1875 c-9 -26 -7 -32 5 -12 6 10 9 21 6 23 -2 3 -7 -2 -11 -11z"/>
<path d="M3130 1849 c-7 -11 -10 -23 -7 -25 2 -2 9 7 15 21 14 30 7 33 -8 4z"/>
<path d="M3191 1854 c0 -11 3 -14 6 -6 3 7 2 16 -1 19 -3 4 -6 -2 -5 -13z"/>
<path d="M3322 1820 c-1 -19 -13 -59 -27 -89 -14 -30 -24 -56 -22 -58 11 -10
58 120 54 150 l-4 32 -1 -35z"/>
<path d="M2976 1790 c-22 -56 -19 -65 5 -11 11 24 18 46 15 48 -2 2 -11 -14
-20 -37z"/>
<path d="M3150 1779 c-19 -27 -41 -47 -47 -44 -9 3 -13 -5 -13 -22 0 -15 4
-23 8 -17 32 37 94 125 91 128 -2 2 -20 -18 -39 -45z"/>
<path d="M3216 1765 c-9 -26 -7 -32 5 -12 6 10 9 21 6 23 -2 3 -7 -2 -11 -11z"/>
<path d="M3042 1750 c0 -14 2 -19 5 -12 2 6 2 18 0 25 -3 6 -5 1 -5 -13z"/>
<path d="M2946 1708 c-3 -13 -5 -39 -5 -58 1 -27 3 -22 9 20 9 58 7 77 -4 38z"/>
<path d="M3175 1661 c-14 -38 -42 -91 -62 -116 -19 -26 -33 -48 -31 -51 9 -8
79 104 103 166 14 35 23 65 21 67 -2 2 -16 -27 -31 -66z"/>
<path d="M3052 1695 c0 -16 2 -22 5 -12 2 9 2 23 0 30 -3 6 -5 -1 -5 -18z"/>
<path d="M3242 1615 c-17 -37 -14 -45 4 -12 9 16 14 31 11 33 -2 2 -9 -7 -15
-21z"/>
<path d="M3043 1575 c0 -33 2 -45 4 -27 2 18 2 45 0 60 -2 15 -4 0 -4 -33z"/>
<path d="M2927 1551 c-4 -35 -5 -66 -3 -68 6 -7 19 103 14 119 -3 7 -8 -16
-11 -51z"/>
<path d="M3206 1535 c-9 -26 -7 -32 5 -12 6 10 9 21 6 23 -2 3 -7 -2 -11 -11z"/>
<path d="M3031 1484 c0 -11 3 -14 6 -6 3 7 2 16 -1 19 -3 4 -6 -2 -5 -13z"/>
<path d="M2911 1454 c0 -11 3 -14 6 -6 3 7 2 16 -1 19 -3 4 -6 -2 -5 -13z"/>
<path d="M1243 1925 c0 -38 2 -53 4 -32 2 20 2 52 0 70 -2 17 -4 1 -4 -38z"/>
<path d="M1152 1940 c0 -14 2 -19 5 -12 2 6 2 18 0 25 -3 6 -5 1 -5 -13z"/>
<path d="M1455 1950 c3 -5 8 -10 11 -10 2 0 4 5 4 10 0 6 -5 10 -11 10 -5 0
-7 -4 -4 -10z"/>
<path d="M1504 1918 c8 -24 21 -60 30 -81 9 -21 21 -64 25 -95 l9 -57 0 45 c1
28 -10 73 -28 120 -17 41 -30 83 -30 93 0 9 -4 17 -10 17 -5 0 -3 -18 4 -42z"/>
<path d="M1331 1848 c2 -86 6 -76 11 25 2 31 0 57 -4 57 -5 0 -7 -37 -7 -82z"/>
<path d="M1472 1910 c0 -14 2 -19 5 -12 2 6 2 18 0 25 -3 6 -5 1 -5 -13z"/>
<path d="M1351 1900 c0 -8 4 -22 9 -30 12 -18 12 -2 0 25 -6 13 -9 15 -9 5z"/>
<path d="M1481 1854 c0 -11 3 -14 6 -6 3 7 2 16 -1 19 -3 4 -6 -2 -5 -13z"/>
<path d="M1281 1839 c0 -13 4 -33 9 -44 7 -14 8 -8 3 20 -7 46 -13 59 -12 24z"/>
<path d="M1211 1814 c0 -11 3 -14 6 -6 3 7 2 16 -1 19 -3 4 -6 -2 -5 -13z"/>
<path d="M1492 1820 c0 -8 4 -26 8 -40 6 -20 8 -21 8 -5 0 11 -3 29 -8 40 -5
12 -8 14 -8 5z"/>
<path d="M1380 1765 l-5 -60 -17 30 c-20 34 -24 28 -6 -10 23 -50 41 -24 36
51 l-4 49 -4 -60z"/>
<path d="M1433 1760 c0 -36 2 -50 4 -32 2 17 2 47 0 65 -2 17 -4 3 -4 -33z"/>
<path d="M1253 1775 c0 -22 2 -30 4 -17 2 12 2 30 0 40 -3 9 -5 -1 -4 -23z"/>
<path d="M1221 1774 c0 -11 3 -14 6 -6 3 7 2 16 -1 19 -3 4 -6 -2 -5 -13z"/>
<path d="M1232 1725 c0 -16 2 -22 5 -12 2 9 2 23 0 30 -3 6 -5 -1 -5 -18z"/>
<path d="M1513 1715 c0 -22 2 -30 4 -17 2 12 2 30 0 40 -3 9 -5 -1 -4 -23z"/>
<path d="M1312 1720 c0 -14 2 -19 5 -12 2 6 2 18 0 25 -3 6 -5 1 -5 -13z"/>
<path d="M1261 1705 c0 -5 6 -21 14 -35 8 -14 14 -20 14 -15 0 6 -6 21 -14 35
-8 14 -14 21 -14 15z"/>
<path d="M1242 1670 c0 -14 2 -19 5 -12 2 6 2 18 0 25 -3 6 -5 1 -5 -13z"/>
<path d="M1325 1668 c13 -44 55 -125 75 -143 31 -28 41 -8 37 71 l-3 69 -2
-72 c-1 -40 -6 -73 -12 -73 -15 0 -58 70 -76 122 -16 48 -31 68 -19 26z"/>
<path d="M1502 1630 c0 -14 2 -19 5 -12 2 6 2 18 0 25 -3 6 -5 1 -5 -13z"/>
<path d="M1331 1555 c12 -27 26 -54 31 -60 5 -5 0 13 -12 40 -12 28 -26 55
-31 60 -6 6 0 -12 12 -40z"/>
<path d="M1492 1580 c0 -14 2 -19 5 -12 2 6 2 18 0 25 -3 6 -5 1 -5 -13z"/>
<path d="M1289 1545 c5 -11 17 -29 26 -40 l16 -20 -10 20 c-5 11 -17 29 -26
40 l-16 20 10 -20z"/>
<path d="M1483 1495 c0 -33 2 -45 4 -27 2 18 2 45 0 60 -2 15 -4 0 -4 -33z"/>
<path d="M1601 1464 c0 -11 3 -14 6 -6 3 7 2 16 -1 19 -3 4 -6 -2 -5 -13z"/>
<path d="M1601 1384 c0 -11 3 -14 6 -6 3 7 2 16 -1 19 -3 4 -6 -2 -5 -13z"/>
<path d="M3266 1285 c-9 -26 -7 -32 5 -12 6 10 9 21 6 23 -2 3 -7 -2 -11 -11z"/>
<path d="M2971 1154 c0 -11 3 -14 6 -6 3 7 2 16 -1 19 -3 4 -6 -2 -5 -13z"/>
<path d="M1520 1176 c0 -32 -16 -42 -29 -19 -6 10 -11 13 -11 7 0 -6 7 -17 16
-25 13 -10 17 -10 25 2 9 15 12 59 4 59 -3 0 -5 -11 -5 -24z"/>
<path d="M1563 1130 c0 -25 2 -35 4 -22 2 12 2 32 0 45 -2 12 -4 2 -4 -23z"/>
<path d="M1633 1085 c0 -22 2 -30 4 -17 2 12 2 30 0 40 -3 9 -5 -1 -4 -23z"/>
<path d="M2441 1174 c0 -11 3 -14 6 -6 3 7 2 16 -1 19 -3 4 -6 -2 -5 -13z"/>
<path d="M2351 1134 c0 -11 3 -14 6 -6 3 7 2 16 -1 19 -3 4 -6 -2 -5 -13z"/>
<path d="M2432 1120 c0 -14 2 -19 5 -12 2 6 2 18 0 25 -3 6 -5 1 -5 -13z"/>
<path d="M2421 1068 c0 -14 -4 -35 -7 -45 -5 -17 -5 -17 6 0 6 10 9 30 7 45
l-4 27 -2 -27z"/>
<path d="M2721 1184 c0 -11 3 -14 6 -6 3 7 2 16 -1 19 -3 4 -6 -2 -5 -13z"/>
<path d="M2697 1125 c-9 -20 -17 -41 -17 -48 0 -7 9 8 20 32 24 52 21 66 -3
16z"/>
<path d="M1947 1139 c3 -24 7 -46 9 -48 9 -10 3 65 -5 78 -6 10 -8 -1 -4 -30z"/>
<path d="M1892 1125 c0 -16 2 -22 5 -12 2 9 2 23 0 30 -3 6 -5 -1 -5 -18z"/>
<path d="M1902 1070 c0 -14 2 -19 5 -12 2 6 2 18 0 25 -3 6 -5 1 -5 -13z"/>
<path d="M1911 1024 c0 -11 3 -14 6 -6 3 7 2 16 -1 19 -3 4 -6 -2 -5 -13z"/>
<path d="M2102 1145 c0 -16 2 -22 5 -12 2 9 2 23 0 30 -3 6 -5 -1 -5 -18z"/>
<path d="M2152 1145 c0 -16 2 -22 5 -12 2 9 2 23 0 30 -3 6 -5 -1 -5 -18z"/>
<path d="M2093 1075 c0 -22 2 -30 4 -17 2 12 2 30 0 40 -3 9 -5 -1 -4 -23z"/>
<path d="M3672 2015 c-12 -25 -20 -45 -17 -45 7 0 47 81 43 86 -3 2 -14 -17
-26 -41z"/>
<path d="M3741 2046 c0 -10 -21 -62 -46 -114 -25 -52 -44 -97 -42 -99 8 -8 98
197 94 214 -4 17 -5 17 -6 -1z"/>
<path d="M951 2004 c0 -11 3 -14 6 -6 3 7 2 16 -1 19 -3 4 -6 -2 -5 -13z"/>
<path d="M832 1980 c0 -14 2 -19 5 -12 2 6 2 18 0 25 -3 6 -5 1 -5 -13z"/>
<path d="M1835 1985 c-3 -8 -7 -21 -9 -29 -6 -17 59 -37 87 -27 21 8 21 9 -10
40 -34 33 -61 40 -68 16z"/>
<path d="M965 1936 c3 -27 5 -78 5 -114 0 -36 2 -63 4 -61 9 9 7 156 -3 189
-10 33 -10 33 -6 -14z"/>
<path d="M842 1930 c0 -14 2 -19 5 -12 2 6 2 18 0 25 -3 6 -5 1 -5 -13z"/>
<path d="M2179 1873 c5 -61 8 -57 13 15 2 24 -1 42 -7 42 -6 0 -8 -22 -6 -57z"/>
<path d="M1035 1876 c3 -25 15 -50 33 -70 16 -17 34 -40 40 -51 6 -11 12 -15
12 -8 0 6 -17 33 -37 60 -20 26 -40 61 -45 78 -7 26 -7 25 -3 -9z"/>
<path d="M2852 1885 c0 -16 2 -22 5 -12 2 9 2 23 0 30 -3 6 -5 -1 -5 -18z"/>
<path d="M2656 1844 c-10 -73 -7 -127 9 -154 8 -14 15 -52 15 -85 1 -33 5 -78
9 -100 6 -26 7 -5 3 60 -3 59 -11 112 -20 130 -11 22 -13 48 -8 112 7 90 3
111 -8 37z"/>
<path d="M991 1870 c0 -8 4 -22 9 -30 12 -18 12 -2 0 25 -6 13 -9 15 -9 5z"/>
<path d="M1883 1815 c0 -38 2 -53 4 -32 2 20 2 52 0 70 -2 17 -4 1 -4 -38z"/>
<path d="M1925 1835 c-3 -26 -4 -49 -2 -51 3 -3 8 16 12 41 3 26 4 49 2 51 -3
3 -8 -16 -12 -41z"/>
<path d="M2443 1815 c0 -38 2 -53 4 -32 2 20 2 52 0 70 -2 17 -4 1 -4 -38z"/>
<path d="M2547 1835 c-24 -50 -20 -58 4 -12 11 22 19 41 17 43 -3 2 -12 -12
-21 -31z"/>
<path d="M2612 1850 c0 -14 2 -19 5 -12 2 6 2 18 0 25 -3 6 -5 1 -5 -13z"/>
<path d="M2842 1830 c0 -14 2 -19 5 -12 2 6 2 18 0 25 -3 6 -5 1 -5 -13z"/>
<path d="M1010 1816 c0 -2 8 -10 18 -17 15 -13 16 -12 3 4 -13 16 -21 21 -21
13z"/>
<path d="M2371 1804 c0 -11 3 -14 6 -6 3 7 2 16 -1 19 -3 4 -6 -2 -5 -13z"/>
<path d="M2602 1800 c0 -14 2 -19 5 -12 2 6 2 18 0 25 -3 6 -5 1 -5 -13z"/>
<path d="M1702 1770 c0 -19 2 -27 5 -17 2 9 2 25 0 35 -3 9 -5 1 -5 -18z"/>
<path d="M2171 1784 c0 -11 3 -14 6 -6 3 7 2 16 -1 19 -3 4 -6 -2 -5 -13z"/>
<path d="M2830 1789 c0 -8 -11 -31 -25 -51 -32 -48 -33 -62 0 -18 27 37 40 68
31 77 -3 4 -6 0 -6 -8z"/>
<path d="M921 1774 c-1 -16 30 -103 39 -109 4 -3 0 16 -10 43 -9 26 -20 54
-23 62 -3 8 -6 10 -6 4z"/>
<path d="M1040 1776 c0 -2 8 -10 18 -17 15 -13 16 -12 3 4 -13 16 -21 21 -21
13z"/>
<path d="M2361 1764 c0 -11 3 -14 6 -6 3 7 2 16 -1 19 -3 4 -6 -2 -5 -13z"/>
<path d="M2732 1760 c0 -14 2 -19 5 -12 2 6 2 18 0 25 -3 6 -5 1 -5 -13z"/>
<path d="M793 1738 c19 -45 66 -134 67 -127 0 9 -71 159 -76 159 -2 0 2 -15 9
-32z"/>
<path d="M1912 1745 c0 -16 2 -22 5 -12 2 9 2 23 0 30 -3 6 -5 -1 -5 -18z"/>
<path d="M2597 1720 c3 -30 7 -57 9 -59 7 -8 2 64 -6 89 -6 16 -7 6 -3 -30z"/>
<path d="M2161 1744 c0 -11 3 -14 6 -6 3 7 2 16 -1 19 -3 4 -6 -2 -5 -13z"/>
<path d="M2501 1729 c-6 -18 -10 -53 -10 -78 2 -45 2 -44 9 14 4 33 11 68 15
78 4 9 5 17 2 17 -3 0 -10 -14 -16 -31z"/>
<path d="M981 1745 c0 -5 15 -39 34 -75 19 -36 34 -60 34 -55 0 6 -15 39 -34
75 -19 36 -34 61 -34 55z"/>
<path d="M1866 1699 c-4 -23 -5 -44 -2 -46 2 -2 7 14 11 37 4 23 5 43 2 46 -2
3 -7 -14 -11 -37z"/>
<path d="M2352 1720 c0 -14 2 -19 5 -12 2 6 2 18 0 25 -3 6 -5 1 -5 -13z"/>
<path d="M2431 1724 c0 -11 3 -14 6 -6 3 7 2 16 -1 19 -3 4 -6 -2 -5 -13z"/>
<path d="M1792 1700 c0 -14 2 -19 5 -12 2 6 2 18 0 25 -3 6 -5 1 -5 -13z"/>
<path d="M1693 1665 c0 -27 2 -38 4 -22 2 15 2 37 0 50 -2 12 -4 0 -4 -28z"/>
<path d="M1902 1690 c0 -14 2 -19 5 -12 2 6 2 18 0 25 -3 6 -5 1 -5 -13z"/>
<path d="M2152 1680 c0 -19 2 -27 5 -17 2 9 2 25 0 35 -3 9 -5 1 -5 -18z"/>
<path d="M1131 1684 c0 -11 3 -14 6 -6 3 7 2 16 -1 19 -3 4 -6 -2 -5 -13z"/>
<path d="M2343 1655 c0 -22 2 -30 4 -17 2 12 2 30 0 40 -3 9 -5 -1 -4 -23z"/>
<path d="M1093 1610 c0 -41 2 -58 4 -37 2 20 2 54 0 75 -2 20 -4 3 -4 -38z"/>
<path d="M2733 1605 c0 -44 2 -61 4 -37 2 23 2 59 0 80 -2 20 -4 1 -4 -43z"/>
<path d="M2773 1625 c0 -33 2 -45 4 -27 2 18 2 45 0 60 -2 15 -4 0 -4 -33z"/>
<path d="M1142 1635 c0 -16 2 -22 5 -12 2 9 2 23 0 30 -3 6 -5 -1 -5 -18z"/>
<path d="M1783 1605 c0 -27 2 -38 4 -22 2 15 2 37 0 50 -2 12 -4 0 -4 -28z"/>
<path d="M1892 1620 c0 -19 2 -27 5 -17 2 9 2 25 0 35 -3 9 -5 1 -5 -18z"/>
<path d="M2591 1634 c0 -11 3 -14 6 -6 3 7 2 16 -1 19 -3 4 -6 -2 -5 -13z"/>
<path d="M1852 1620 c0 -14 2 -19 5 -12 2 6 2 18 0 25 -3 6 -5 1 -5 -13z"/>
<path d="M2161 1630 c0 -8 4 -22 9 -30 12 -18 12 -2 0 25 -6 13 -9 15 -9 5z"/>
<path d="M2386 1615 c-3 -9 -6 -22 -5 -28 0 -7 5 -1 10 12 5 13 8 26 5 28 -2
2 -6 -3 -10 -12z"/>
<path d="M2333 1555 c0 -33 2 -45 4 -27 2 18 2 45 0 60 -2 15 -4 0 -4 -33z"/>
<path d="M2592 1575 c0 -16 2 -22 5 -12 2 9 2 23 0 30 -3 6 -5 -1 -5 -18z"/>
<path d="M1842 1565 c0 -16 2 -22 5 -12 2 9 2 23 0 30 -3 6 -5 -1 -5 -18z"/>
<path d="M3386 1575 c-9 -26 -7 -32 5 -12 6 10 9 21 6 23 -2 3 -7 -2 -11 -11z"/>
<path d="M1153 1540 c0 -25 2 -35 4 -22 2 12 2 32 0 45 -2 12 -4 2 -4 -23z"/>
<path d="M2373 1510 c0 -36 2 -50 4 -32 2 17 2 47 0 65 -2 17 -4 3 -4 -33z"/>
<path d="M2537 1562 c6 -4 13 -25 16 -47 4 -40 4 -40 5 8 2 39 -1 47 -15 47
-12 0 -14 -3 -6 -8z"/>
<path d="M1771 1534 c0 -11 3 -14 6 -6 3 7 2 16 -1 19 -3 4 -6 -2 -5 -13z"/>
<path d="M2113 1510 c0 -25 2 -35 4 -22 2 12 2 32 0 45 -2 12 -4 2 -4 -23z"/>
<path d="M2782 1520 c0 -19 2 -27 5 -17 2 9 2 25 0 35 -3 9 -5 1 -5 -18z"/>
<path d="M2461 1524 c0 -11 3 -14 6 -6 3 7 2 16 -1 19 -3 4 -6 -2 -5 -13z"/>
<path d="M2607 1520 c3 -14 10 -41 14 -60 7 -34 7 -34 7 -5 1 17 -5 44 -13 60
-12 24 -14 25 -8 5z"/>
<path d="M1833 1480 c0 -30 2 -43 4 -27 2 15 2 39 0 55 -2 15 -4 2 -4 -28z"/>
<path d="M2506 1504 c-8 -21 -7 -56 2 -71 4 -6 7 11 7 38 0 27 -1 49 -1 49 -1
0 -5 -7 -8 -16z"/>
<path d="M1761 1484 c0 -11 3 -14 6 -6 3 7 2 16 -1 19 -3 4 -6 -2 -5 -13z"/>
<path d="M2452 1480 c0 -14 2 -19 5 -12 2 6 2 18 0 25 -3 6 -5 1 -5 -13z"/>
<path d="M2772 1440 c0 -19 2 -27 5 -17 2 9 2 25 0 35 -3 9 -5 1 -5 -18z"/>
<path d="M1752 1435 c0 -16 2 -22 5 -12 2 9 2 23 0 30 -3 6 -5 -1 -5 -18z"/>
<path d="M2556 1429 c-8 -42 0 -50 9 -9 4 17 5 34 2 36 -2 3 -7 -10 -11 -27z"/>
<path d="M2451 1414 c0 -11 3 -14 6 -6 3 7 2 16 -1 19 -3 4 -6 -2 -5 -13z"/>
<path d="M1762 1380 c0 -14 2 -19 5 -12 2 6 2 18 0 25 -3 6 -5 1 -5 -13z"/>
<path d="M3380 1280 c-6 -11 -8 -20 -6 -20 3 0 10 9 16 20 6 11 8 20 6 20 -3
0 -10 -9 -16 -20z"/>
</g>
</svg>
