<svg width="526" height="511" viewBox="0 0 526 511" fill="none" xmlns="http://www.w3.org/2000/svg">
<g clip-path="url(#clip0_2_5)">
<path d="M408.877 19.8012L141.669 279.389C131.464 289.25 123.373 300.98 117.865 313.9C112.358 326.819 109.543 340.672 109.583 354.655V383.25C109.583 388.897 111.892 394.313 116.003 398.305C120.113 402.298 125.687 404.542 131.5 404.542H160.934C175.328 404.581 189.587 401.846 202.886 396.496C216.185 391.145 228.259 383.285 238.409 373.371L505.617 113.783C518.425 101.309 525.618 84.4103 525.618 66.7919C525.618 49.1736 518.425 32.2745 505.617 19.8012C492.592 7.70529 475.267 0.954895 457.247 0.954895C439.228 0.954895 421.903 7.70529 408.877 19.8012ZM474.627 83.6762L207.419 343.264C195.061 355.197 178.358 361.914 160.934 361.958H153.417V354.655C153.462 337.728 160.377 321.501 172.659 309.496L439.867 49.9076C444.549 45.5632 450.773 43.1389 457.247 43.1389C463.721 43.1389 469.946 45.5632 474.627 49.9076C479.229 54.3899 481.812 60.4617 481.812 66.7919C481.812 73.1221 479.229 79.194 474.627 83.6762Z" fill="#2E2C2A"/>
<path d="M504.083 191.178C498.271 191.178 492.696 193.421 488.586 197.414C484.476 201.407 482.167 206.823 482.167 212.47V319.375H394.5C377.062 319.375 360.338 326.105 348.008 338.084C335.677 350.062 328.75 366.309 328.75 383.25V468.417H109.583C92.1454 468.417 75.4216 461.687 63.0911 449.708C50.7606 437.729 43.8333 421.482 43.8333 404.542V106.458C43.8333 89.5176 50.7606 73.2708 63.0911 61.2919C75.4216 49.313 92.1454 42.5833 109.583 42.5833H307.754C313.567 42.5833 319.141 40.3401 323.251 36.3472C327.361 32.3542 329.671 26.9386 329.671 21.2917C329.671 15.6448 327.361 10.2291 323.251 6.23619C319.141 2.24322 313.567 0 307.754 0L109.583 0C80.5307 0.0338081 52.678 11.2608 32.1347 31.2183C11.5913 51.1758 0.0348005 78.2342 0 106.458L0 404.542C0.0348005 432.766 11.5913 459.824 32.1347 479.782C52.678 499.739 80.5307 510.966 109.583 511H358.184C372.581 511.04 386.844 508.306 400.146 502.955C413.449 497.605 425.527 489.744 435.681 479.829L493.892 423.236C504.1 413.375 512.193 401.646 517.705 388.726C523.216 375.807 526.035 361.954 526 347.97V212.47C526 206.823 523.691 201.407 519.581 197.414C515.471 193.421 509.896 191.178 504.083 191.178ZM404.691 449.723C395.881 458.261 384.74 464.171 372.583 466.756V383.25C372.583 377.603 374.892 372.187 379.003 368.195C383.113 364.202 388.687 361.958 394.5 361.958H480.523C477.812 373.744 471.735 384.547 462.99 393.129L404.691 449.723Z" fill="#2E2C2A"/>
</g>
<defs>
<clipPath id="clip0_2_5">
<rect width="526" height="511" fill="white"/>
</clipPath>
</defs>
</svg>
