<svg width="512" height="500" viewBox="0 0 512 500" fill="none" xmlns="http://www.w3.org/2000/svg">
<path fill-rule="evenodd" clip-rule="evenodd" d="M256 0.314697C114.624 0.314697 0 114.917 0 256.315C0 369.424 73.344 465.381 175.061 499.237C187.861 501.605 192.555 493.691 192.555 486.928C192.555 480.827 192.32 460.667 192.213 439.269C121.003 454.757 105.963 409.061 105.963 409.061C94.3147 379.472 77.5467 371.6 77.5467 371.6C54.3147 355.707 79.296 356.048 79.296 356.048C105.003 357.861 118.528 382.437 118.528 382.437C141.355 421.563 178.411 410.256 193.024 403.707C195.328 387.152 201.963 375.867 209.28 369.467C152.427 363.003 92.6507 341.051 92.6507 242.96C92.6507 215.013 102.656 192.165 119.04 174.245C116.373 167.781 107.605 141.755 121.515 106.491C121.515 106.491 143.019 99.6214 191.936 132.731C212.352 127.056 234.24 124.219 256 124.112C277.76 124.219 299.669 127.056 320.128 132.731C368.981 99.6 390.464 106.491 390.464 106.491C404.395 141.755 395.627 167.781 392.981 174.245C409.387 192.165 419.328 215.013 419.328 242.96C419.328 341.285 359.445 362.939 302.443 369.275C311.616 377.211 319.808 392.805 319.808 416.677C319.808 450.939 319.509 478.501 319.509 486.928C319.509 493.733 324.117 501.733 337.088 499.216C438.763 465.317 512.021 369.403 512.021 256.336C512 114.939 397.376 0.314697 256 0.314697Z" fill="#FFF8F5"/>
<path d="M96.96 367.888C96.4053 369.168 94.4 369.552 92.5653 368.677C90.7093 367.845 89.664 366.096 90.2613 364.837C90.816 363.536 92.8213 363.173 94.6773 364.048C96.5333 364.859 97.6 366.608 96.96 367.888Z" fill="#FFF8F5"/>
<path d="M107.328 379.451C106.112 380.581 103.723 380.048 102.101 378.277C100.416 376.485 100.117 374.096 101.355 372.965C102.613 371.835 104.917 372.368 106.603 374.16C108.288 375.931 108.608 378.299 107.328 379.451Z" fill="#FFF8F5"/>
<path d="M117.419 394.192C115.84 395.28 113.28 394.256 111.701 391.995C110.123 389.712 110.123 386.981 111.744 385.893C113.323 384.805 115.861 385.787 117.461 388.048C119.019 390.352 119.019 393.083 117.419 394.192Z" fill="#FFF8F5"/>
<path d="M131.243 408.443C129.835 410 126.848 409.573 124.672 407.461C122.432 405.392 121.813 402.469 123.221 400.912C124.651 399.355 127.659 399.803 129.856 401.893C132.075 403.963 132.736 406.907 131.243 408.443Z" fill="#FFF8F5"/>
<path d="M150.336 416.699C149.717 418.704 146.837 419.621 143.936 418.768C141.035 417.893 139.136 415.547 139.733 413.52C140.331 411.493 143.232 410.555 146.155 411.472C149.035 412.325 150.933 414.672 150.336 416.699Z" fill="#FFF8F5"/>
<path d="M171.285 418.235C171.349 420.347 168.896 422.096 165.845 422.139C162.795 422.203 160.299 420.496 160.277 418.427C160.277 416.293 162.688 414.565 165.739 414.501C168.789 414.437 171.285 416.144 171.285 418.235Z" fill="#FFF8F5"/>
<path d="M190.784 414.928C191.147 416.976 189.035 419.109 186.005 419.664C183.04 420.219 180.288 418.939 179.904 416.891C179.541 414.779 181.696 412.667 184.661 412.112C187.669 411.579 190.4 412.816 190.784 414.928Z" fill="#FFF8F5"/>
</svg>
