<svg width="512" height="470" viewBox="0 0 512 470" fill="none" xmlns="http://www.w3.org/2000/svg">
<path d="M394.667 0H117.333C86.225 0.033881 56.4005 12.4066 34.4036 34.4036C12.4066 56.4005 0.033881 86.225 0 117.333L0 352C0.033881 383.108 12.4066 412.933 34.4036 434.93C56.4005 456.927 86.225 469.299 117.333 469.333H394.667C425.775 469.299 455.6 456.927 477.596 434.93C499.593 412.933 511.966 383.108 512 352V117.333C511.966 86.225 499.593 56.4005 477.596 34.4036C455.6 12.4066 425.775 0.033881 394.667 0ZM394.667 64C407.605 64.0431 420.077 68.833 429.717 77.4613L291.051 216.128C281.632 225.124 269.109 230.143 256.085 230.143C243.061 230.143 230.538 225.124 221.12 216.128L82.4533 77.4613C92.0501 68.8719 104.454 64.0847 117.333 64H394.667ZM394.667 405.333H117.333C103.188 405.333 89.6229 399.714 79.621 389.712C69.619 379.71 64 366.145 64 352V149.696L175.765 261.461C186.299 271.999 198.805 280.359 212.57 286.062C226.336 291.766 241.089 294.701 255.989 294.701C270.889 294.701 285.643 291.766 299.408 286.062C313.173 280.359 325.68 271.999 336.213 261.461L448 149.696V352C448 366.145 442.381 379.71 432.379 389.712C422.377 399.714 408.812 405.333 394.667 405.333Z" fill="#2E2C2A"/>
</svg>
