<svg width="512" height="470" viewBox="0 0 512 470" fill="none" xmlns="http://www.w3.org/2000/svg">
<path d="M394.667 0.333374H117.333C86.225 0.367255 56.4005 12.74 34.4036 34.7369C12.4066 56.7339 0.033881 86.5584 0 117.667L0 352.333C0.033881 383.442 12.4066 413.266 34.4036 435.263C56.4005 457.26 86.225 469.633 117.333 469.667H394.667C425.775 469.633 455.6 457.26 477.596 435.263C499.593 413.266 511.966 383.442 512 352.333V117.667C511.966 86.5584 499.593 56.7339 477.596 34.7369C455.6 12.74 425.775 0.367255 394.667 0.333374ZM394.667 64.3334C407.605 64.3764 420.077 69.1664 429.717 77.7947L291.051 216.461C281.632 225.457 269.109 230.476 256.085 230.476C243.061 230.476 230.538 225.457 221.12 216.461L82.4533 77.7947C92.0501 69.2053 104.454 64.4181 117.333 64.3334H394.667ZM394.667 405.667H117.333C103.188 405.667 89.6229 400.048 79.621 390.046C69.619 380.044 64 366.478 64 352.333V150.029L175.765 261.795C186.299 272.333 198.805 280.692 212.57 286.396C226.336 292.099 241.089 295.035 255.989 295.035C270.889 295.035 285.643 292.099 299.408 286.396C313.173 280.692 325.68 272.333 336.213 261.795L448 150.029V352.333C448 366.478 442.381 380.044 432.379 390.046C422.377 400.048 408.812 405.667 394.667 405.667Z" fill="#FFF8F5"/>
</svg>
