<svg width="470" height="513" viewBox="0 0 470 513" fill="none" xmlns="http://www.w3.org/2000/svg">
<path d="M408.259 512C400.367 511.978 392.557 510.393 385.281 507.335C378.006 504.278 371.408 499.809 365.869 494.187L234.669 363.755L103.469 494.272C95.0432 502.821 84.2371 508.633 72.4595 510.95C60.682 513.268 48.4794 511.983 37.4426 507.264C26.2963 502.781 16.7609 495.04 10.0817 485.054C3.40254 475.068 -0.110064 463.299 0.00262904 451.285V106.667C0.00262904 78.3769 11.2407 51.2458 31.2446 31.2419C51.2485 11.2381 78.3795 0 106.669 0L362.669 0C376.677 0 390.548 2.75902 403.489 8.11952C416.43 13.48 428.189 21.337 438.094 31.2419C447.999 41.1469 455.856 52.9057 461.216 65.8471C466.577 78.7885 469.336 92.659 469.336 106.667V451.285C469.455 463.289 465.955 475.051 459.292 485.036C452.629 495.021 443.112 502.767 431.981 507.264C424.468 510.406 416.403 512.017 408.259 512ZM106.669 42.6667C89.6954 42.6667 73.4168 49.4095 61.4145 61.4118C49.4121 73.4142 42.6693 89.6928 42.6693 106.667V451.285C42.6616 454.84 43.7076 458.318 45.6752 461.278C47.6428 464.239 50.4436 466.55 53.724 467.92C57.0044 469.29 60.6172 469.656 64.1059 468.974C67.5946 468.291 70.8028 466.59 73.3253 464.085L219.736 318.571C223.733 314.597 229.14 312.367 234.776 312.367C240.412 312.367 245.819 314.597 249.816 318.571L396.056 464.043C398.578 466.548 401.787 468.249 405.275 468.931C408.764 469.614 412.377 469.247 415.657 467.877C418.938 466.507 421.739 464.196 423.706 461.236C425.674 458.275 426.72 454.798 426.712 451.243V106.667C426.712 89.6928 419.969 73.4142 407.967 61.4118C395.964 49.4095 379.686 42.6667 362.712 42.6667H106.669Z" fill="#FFF8F5"/>
</svg>
